<?xml version="1.0" encoding="UTF-8"?>
<svg {% if include.purpose == "heading" %}aria-labelledby="title-text" focusable="false"{% endif %} xmlns="http://www.w3.org/2000/svg" version="1.1" viewBox="0 0 1583.6 460.14">
  <title id="title-text">Ferrell's Disposal Service, LLC</title>
  <defs>
    <style>
      .cls-1 {
        fill: #fff;
      }

      .cls-1, .cls-2, .cls-3 {
        fill-rule: evenodd;
      }

      .cls-3 {
        fill: #ccad75;
      }
    </style>
  </defs>
  <!-- Generator: Adobe Illustrator 28.7.1, SVG Export Plug-In . SVG Version: 1.2.0 Build 142)  -->
  <g>
    <g id="Layer_1">
      <path class="cls-2" d="M458.29,123.9c-2.22.27-4.22.47-6,.61l-8.33-68.59c2.41-.41,5.15-.8,8.24-1.17,8.33-1.01,14.9.36,19.71,4.13,6.13,4.81,9.99,13.76,11.58,26.85,1.55,12.83-.11,22.35-4.99,28.58-4.12,5.26-10.86,8.46-20.21,9.59ZM1527.94,215.75c-6.75-12.03-20.12-23.59-40.1-34.67-12.42-6.88-20.23-12.42-23.43-16.61-3.89-5.09-4.64-12.18-2.25-21.26,2.24-8.5,6.3-14.77,12.17-18.81,5.56-3.83,11.72-4.85,18.46-3.07,21.25,5.6,28.97,24.91,23.18,57.95-.28,1.55-.01,3.01.79,4.37.81,1.36,1.96,2.3,3.45,2.81l4.35,1.48c1.45.5,2.9.47,4.33-.07,1.44-.53,2.54-1.47,3.3-2.79l26.81-46.46c1.7-2.95,1.3-5.58-1.19-7.9-19.72-18.37-40.19-30.35-61.41-35.94-28.47-7.5-51.38-6.19-68.71,3.91-15.41,8.99-26.06,24.65-31.95,47-5.36,20.36-3.83,37.28,4.61,50.78,3.81,6.09,9.32,11.73,16.53,16.93,3.9,2.8,13.98,8.82,30.26,18.07,16.41,9.32,22.56,21.75,18.47,37.29-2.67,10.12-7.66,17.56-14.98,22.33-7.11,4.64-15.05,5.81-23.81,3.5-24.33-6.41-34.18-30.15-29.54-71.21.33-2.95-.83-5.1-3.48-6.44l-4.18-2.12c-1.54-.78-3.13-.92-4.77-.42s-2.89,1.5-3.73,3l-29.99,53.41c-1.46,2.61-1.22,5.05.74,7.32,17.96,20.87,41.75,35.2,71.35,43,30.53,8.05,55.09,6.64,73.7-4.2,16.61-9.69,28.1-26.63,34.48-50.82,5.28-20.05,4.13-36.83-3.46-50.36ZM1307.6,202.85c-.6-1.54-1.64-2.68-3.11-3.42l-3.99-2c-2.99-1.5-5.57-.97-7.75,1.57-28.89,33.8-52.62,49.15-71.19,46.05-5.86-.98-9.83-3.37-11.89-7.17-3.22-5.92-3.5-16.8-.86-32.62l21.62-129.18.81-4.05c1.32-5.56,4.13-8.95,8.42-10.15,2.62-.73,4.15-2.44,4.6-5.12l.75-4.52c.31-1.82-.09-3.46-1.2-4.92-1.11-1.47-2.58-2.31-4.41-2.51-15.96-1.79-27.88-3.34-35.73-4.66-7.86-1.31-19.62-3.72-35.3-7.22-1.8-.4-3.46-.09-4.99.94-1.52,1.03-2.44,2.45-2.74,4.27l-.76,4.52c-.44,2.68.45,4.79,2.69,6.34,2.79,1.93,4.37,4.18,4.72,6.75.31,2.27-.15,7.1-1.39,14.48l-19.06,114.04c-2.95,17.62-6.09,30.3-9.45,38.04-3.63,8.39-8.66,14.01-15.07,16.86-2.1.93-3.35,2.53-3.73,4.8l-.75,4.53c-.3,1.77.08,3.38,1.14,4.83,1.05,1.45,2.47,2.31,4.24,2.57l70.65,10.48,80.32,13.43c1.5.25,2.92,0,4.24-.76,1.32-.75,2.26-1.84,2.81-3.26l26.36-68.32c.6-1.54.59-3.08,0-4.62ZM1376.16,71.55c1.65-7.72.87-14.07-2.35-19.05-3.06-4.73-8.02-7.83-14.88-9.3-6.92-1.49-12.78-.68-17.56,2.41-5.11,3.31-8.53,8.95-10.24,16.94-.35,1.64-.59,3.97-.71,7l-3,74.73c-.07,1.56.38,2.96,1.34,4.19.95,1.23,2.19,2.01,3.72,2.34l6.4,1.38c1.53.32,2.98.12,4.36-.61s2.36-1.82,2.94-3.27l27.99-69.46c.66-1.76,1.32-4.2,1.99-7.3ZM1021.49,244.38l81.05,7.89c1.52.14,2.91-.2,4.18-1.05,1.27-.84,2.12-1.99,2.57-3.45l21.62-69.96c.49-1.58.38-3.12-.32-4.62-.7-1.5-1.82-2.56-3.34-3.2l-4.11-1.71c-3.09-1.29-5.63-.59-7.62,2.09-26.51,35.71-49.13,52.65-67.87,50.83-5.92-.57-10.04-2.69-12.36-6.34-3.61-5.69-4.64-16.51-3.09-32.48l12.7-130.36.54-4.09c.93-5.65,3.5-9.22,7.7-10.71,2.56-.91,3.97-2.71,4.23-5.42l.45-4.56c.18-1.84-.34-3.45-1.55-4.83-1.2-1.39-2.72-2.13-4.56-2.21-16.05-.69-28.04-1.42-35.97-2.19s-19.83-2.36-35.72-4.78c-1.81-.27-3.45.15-4.9,1.28s-2.27,2.61-2.45,4.44l-.44,4.57c-.26,2.7.77,4.75,3.11,6.14,2.92,1.73,4.65,3.87,5.17,6.41.47,2.24.34,7.09-.38,14.54l-11.2,115.08c-1.73,17.78-4,30.64-6.81,38.59-3.05,8.63-7.68,14.59-13.88,17.86-2.04,1.08-3.16,2.76-3.39,5.05l-.44,4.57c-.17,1.78.31,3.36,1.47,4.74,1.15,1.38,2.62,2.13,4.41,2.27l71.2,5.61ZM768.99,205.11c-2.9-4.68-7.34-14.5-13.34-29.44l-7.96-19.86c-7.18-17.89-18.5-30.37-33.98-37.45,27.84-10.61,41.19-28.48,40.04-53.62-.97-21.33-10.11-36.21-27.43-44.64-15.04-7.32-38.47-10.26-70.28-8.81l-23.88,1.09c-21.93.99-39.62,1.47-53.07,1.44-1.84-.01-3.39.65-4.65,1.97-1.27,1.33-1.86,2.9-1.78,4.73l.21,4.58c.12,2.72,1.44,4.6,3.95,5.64,3.14,1.3,5.15,3.17,6.03,5.61.78,2.15,1.33,6.96,1.64,14.44l5.05,118.49c1.04,24.4-.67,40.53-5.11,48.36-.5.89-1.05,1.73-1.64,2.53-2.11-1.51-4.17-3.65-6.18-6.43-3.24-4.45-8.41-13.9-15.51-28.35l-9.44-19.2c-8.5-17.3-20.73-28.9-36.7-34.8,26.97-12.67,38.93-31.49,35.9-56.47-2.57-21.2-12.81-35.35-30.71-42.45-15.55-6.17-39.13-7.34-70.74-3.51l-23.74,2.89c-21.79,2.64-39.4,4.45-52.81,5.42-1.83.13-3.32.91-4.49,2.32-1.16,1.42-1.64,3.03-1.42,4.85l.56,4.56c.32,2.69,1.78,4.47,4.36,5.32,3.23,1.06,5.37,2.77,6.44,5.14.93,2.09,1.84,6.84,2.72,14.27l13.94,117.78c2.87,24.26,2.39,40.46-1.46,48.61-1.52,3.23-3.66,5.98-6.42,8.27-1.8,1.49-2.56,3.39-2.28,5.71l.55,4.55c.23,1.85,1.09,3.31,2.58,4.41,1.5,1.09,3.16,1.47,4.99,1.12,12.76-2.42,27.09-4.59,42.99-6.52,15.9-1.93,30.33-3.25,43.3-3.95,1.85-.1,3.38-.86,4.57-2.28,1.19-1.42,1.67-3.06,1.45-4.9l-.55-4.55c-.28-2.32-1.48-3.99-3.58-5-6.86-3.31-11.96-10.31-15.31-20.98-2.27-7.22-4.35-18.33-6.25-33.32l-4.25-33.61c8.73-.96,16.54,4.1,23.4,15.18,3.58,5.76,7.58,13.98,12,24.64,2.82,6.8,7.45,18.75,13.88,35.85l7.19,19.11c.53,1.43,1.46,2.52,2.77,3.29,1.31.76,2.72,1.03,4.23.79,6.16-.96,15.38-2.13,27.66-3.5l31.84-3.55c1.13.63,2.39.87,3.76.72,12.91-1.46,27.36-2.55,43.36-3.28s30.5-.95,43.48-.68c1.86.04,3.43-.6,4.73-1.93,1.29-1.33,1.9-2.92,1.82-4.77l-.21-4.59c-.11-2.33-1.17-4.08-3.2-5.26-6.58-3.81-11.15-11.17-13.69-22.07-1.72-7.37-2.96-18.6-3.72-33.69l-1.72-33.84c8.79-.3,16.19,5.34,22.2,16.9,3.13,6.02,6.5,14.51,10.12,25.48,2.3,6.99,6.01,19.25,11.14,36.79l5.73,19.6c.43,1.46,1.27,2.62,2.52,3.48,1.25.86,2.63,1.23,4.15,1.11,6.22-.5,15.5-.97,27.85-1.41l31.72-1.14c1.07.79,2.3,1.19,3.7,1.2l71.41.65,87.63,2.4c3.43.09,5.56-1.52,6.4-4.84l18.01-71.27c.41-1.65.21-3.21-.62-4.7-.83-1.48-2.05-2.48-3.67-2.99l-4.55-1.43c-3.03-.96-5.44-.13-7.23,2.5-25.58,37.53-48.75,56.01-69.52,55.44-14.06-.39-20.75-12.96-20.07-37.71l1.2-43.85c1.7-.06,3.05-.08,4.07-.05,22.7.62,36.52,11,41.45,31.14.78,3.17,2.79,4.8,6.06,4.89l4.58.13c1.77.05,3.3-.54,4.59-1.76,1.28-1.22,1.95-2.71,2-4.48l2.21-80.87c.05-1.77-.53-3.3-1.75-4.59-1.22-1.29-2.71-1.95-4.49-2l-4.58-.13c-3.26-.09-5.37,1.43-6.31,4.55-6.03,19.84-20.39,29.45-43.1,28.83-1.01-.03-2.37-.12-4.06-.27l1.97-71.8,2.1.06c24.73.66,48.03,16.49,69.9,47.49,1.24,1.75,2.93,2.65,5.07,2.71l4.58.13c2.03.05,3.7-.68,5.03-2.22,1.33-1.53,1.82-3.29,1.47-5.29l-9.9-57.28c-.26-1.51-.97-2.76-2.12-3.76-1.16-1-2.5-1.52-4.03-1.56l-76.61-2.1c-16.95-.46-38.04-1.48-63.26-3.04-1.82-.11-3.39.45-4.73,1.67-1.34,1.22-2.03,2.74-2.08,4.56l-.13,4.58c-.07,2.72,1.1,4.69,3.53,5.91,3.04,1.53,4.91,3.54,5.61,6.04.62,2.21.83,7.05.62,14.53l-3.16,115.58c-.49,17.86-1.86,30.85-4.12,38.97-1.55,5.61-3.8,10.17-6.76,13.69-1.97-1.66-3.86-3.94-5.66-6.85ZM676.23,42.81c5.75,5.25,8.93,14.47,9.53,27.65.59,12.9-1.79,22.28-7.12,28.12-4.51,4.93-11.47,7.61-20.88,8.04-2.23.11-4.24.16-6.03.16l-3.14-69.02c2.42-.23,5.19-.41,8.3-.55,8.38-.38,14.83,1.48,19.34,5.6ZM151.12,314.39c.98-1.58,1.23-3.26.76-5.05l-1.19-4.44c-.6-2.25-2.01-3.74-4.24-4.45-10.02-3.21-18.43-15.75-25.24-37.63-1.35-4.35-3.78-13.05-7.29-26.09l-5.59-20.84c1.6-.54,2.89-.94,3.87-1.2,21.95-5.85,38.15.18,48.59,18.09,1.65,2.82,4.05,3.81,7.2,2.97l4.43-1.19c1.71-.45,3.01-1.45,3.9-2.98.89-1.53,1.1-3.16.64-4.87l-20.84-78.17c-.46-1.71-1.45-3.01-2.98-3.9-1.54-.89-3.16-1.1-4.87-.65l-4.43,1.19c-3.15.84-4.74,2.89-4.76,6.15-.15,20.74-11.19,34.03-33.14,39.88-.98.26-2.3.56-3.97.89l-18.5-69.4,2.03-.54c23.9-6.38,50.74,2.18,80.51,25.68,1.68,1.33,3.56,1.72,5.63,1.17l4.43-1.18c1.96-.52,3.36-1.71,4.19-3.55.84-1.85.81-3.68-.09-5.49l-25.76-52.12c-.68-1.37-1.71-2.37-3.1-3-1.39-.63-2.83-.75-4.3-.36l-74.06,19.75c-16.39,4.37-36.9,9.39-61.52,15.05-1.77.41-3.12,1.39-4.06,2.95-.94,1.55-1.17,3.2-.7,4.96l1.18,4.43c.7,2.63,2.39,4.18,5.06,4.66,3.34.6,5.71,2,7.09,4.2,1.22,1.93,2.78,6.52,4.69,13.75l30.13,114.37c6.22,23.62,8,39.73,5.33,48.34-1.06,3.41-2.8,6.43-5.21,9.08-1.58,1.72-2.06,3.72-1.46,5.98l1.18,4.43c.48,1.79,1.54,3.12,3.17,4,1.64.88,3.33,1.01,5.09.42,12.3-4.18,26.19-8.33,41.66-12.45,15.48-4.13,29.59-7.44,42.33-9.95,1.82-.35,3.23-1.32,4.21-2.89ZM311.63,109.73c-3.2.62-4.93,2.56-5.17,5.82-1.52,20.68-13.43,33.2-35.72,37.57-1,.2-2.34.41-4.02.63l-13.82-70.49,2.06-.4c24.27-4.77,50.48,5.57,78.61,31.01,1.59,1.44,3.44,1.95,5.54,1.54l4.5-.88c1.99-.39,3.46-1.48,4.42-3.27.96-1.78,1.05-3.61.27-5.48l-22.21-53.72c-.59-1.41-1.55-2.48-2.9-3.2-1.34-.73-2.77-.94-4.27-.65l-75.21,14.75c-16.64,3.27-37.44,6.9-62.39,10.91-1.79.28-3.2,1.17-4.24,2.66-1.04,1.49-1.39,3.12-1.04,4.9l.89,4.5c.52,2.67,2.1,4.34,4.74,4.99,3.29.83,5.56,2.38,6.79,4.66,1.09,2.02,2.35,6.71,3.79,14.05l22.25,113.46c3.44,17.53,4.95,30.51,4.53,38.93-.45,9.14-3.18,16.17-8.18,21.09-1.64,1.61-2.24,3.55-1.8,5.8l.89,4.51c.34,1.76,1.26,3.13,2.76,4.12,1.5.99,3.13,1.29,4.88.91l69.82-15.02,86.02-16.87c3.37-.66,5.09-2.7,5.18-6.13l1.95-73.48c.04-1.7-.5-3.18-1.63-4.44-1.14-1.27-2.55-1.98-4.24-2.12l-4.76-.4c-3.16-.27-5.33,1.07-6.5,4.03-16.73,42.22-35.29,65.33-55.67,69.32-13.8,2.71-23.09-8.09-27.85-32.39l-8.45-43.04c1.65-.44,2.97-.75,3.96-.94,22.29-4.38,38.05,2.72,47.28,21.3,1.45,2.92,3.77,4.07,6.98,3.44l4.5-.89c1.73-.34,3.1-1.24,4.08-2.71.99-1.47,1.32-3.08.98-4.82l-15.57-79.39c-.34-1.73-1.25-3.1-2.72-4.09-1.47-.98-3.07-1.31-4.81-.97l-4.5.89ZM315.35,263.21l-3.79-3.78,1.83,2.16c.64.63,1.29,1.17,1.96,1.62ZM468.41,78.68l3.98,32.87,1.06-1.2c3.79-4.83,5.01-12.78,3.67-23.85-.37-3.04-.86-5.82-1.48-8.32-1.64-.06-3.43.03-5.34.26l-1.89.24ZM467.95,63.93l2.48,2.48-1.2-1.34c-.41-.41-.84-.79-1.28-1.14ZM1485.69,162.16c-.99,3.74-1.34,6.97-1.07,9.69l6.37,3.56c9.97,5.58,18.4,11.3,25.31,17.17l-3.05-3.05c-.76-.76-1.43-1.63-2.01-2.61-1.61-2.72-2.14-5.64-1.59-8.75,2.42-13.79,2.44-24.77.08-32.96l-1.25-.34c-4.85-1.29-9.25-.58-13.19,2.14-4.57,3.14-7.77,8.19-9.6,15.15ZM117.95,179.49c3.51-2.1,6.35-4.56,8.53-7.38,4.06-5.25,6.12-12.19,6.18-20.82,0-1.97.43-3.8,1.26-5.48-8.82-2.18-17.23-2.54-25.24-1.09l9.27,34.77ZM881.48,143.3c-.64-.64-1.31-1.25-2.02-1.81l3.87,3.86-1.85-2.05ZM678.25,60.95h-3.74s-1.91.08-1.91.08l1.5,33c4-4.57,5.75-12.33,5.25-23.28-.17-3.64-.53-6.91-1.1-9.8ZM300.07,115.08c.18-2.48.99-4.69,2.43-6.63-8.52-2.67-16.76-3.55-24.72-2.65l7.01,35.74c3.06-1.72,5.64-3.75,7.72-6.1,4.4-4.97,6.92-11.75,7.56-20.36ZM893.61,166.28c-1.64-1.64-2.75-3.63-3.32-5.96-.54-2.21-1.19-4.27-1.95-6.19-3.96-1.45-8.56-2.33-13.78-2.64l-1.03,37.55c-.14,5.2.03,9.74.5,13.64,10.71-1.18,22.36-8.18,34.96-21.02l-15.38-15.38ZM1324.01,69.29c.13-3.39.42-6.08.85-8.08,2.08-9.72,6.42-16.72,13.02-20.98,6.28-4.06,13.74-5.16,22.4-3.3,6.48,1.39,11.67,4.03,15.54,7.9l17.33,17.33c1.26,1.26,2.38,2.65,3.37,4.17,4.18,6.48,5.26,14.44,3.23,23.89-.74,3.43-1.49,6.18-2.27,8.26l-28.03,69.55c-1.16,2.9-3.13,5.07-5.88,6.54-2.76,1.46-5.66,1.87-8.71,1.21l-6.41-1.37c-2.48-.54-4.58-1.67-6.31-3.39-.39-.4-.77-.83-1.13-1.3l-17.32-17.32c-1.92-2.47-2.81-5.26-2.69-8.38l3.01-74.73ZM336.67,221.82l-17.32-17.32c-.91-.9-1.67-1.95-2.29-3.14-5.71-2.11-12.64-2.51-20.78-1.19l7.23,36.87c.74,3.75,1.56,7.11,2.47,10.11l.53-.11c10.56-2.06,20.74-10.35,30.54-24.85l-.38-.37ZM973.56,36.28c-.36-.36-.85-.73-1.49-1.1l2.16,2.18-.67-1.08ZM1447.12,285.72c5.95-3.87,10.04-10.07,12.28-18.59,1.37-5.17,1.43-9.74.21-13.72-15.5-8.82-25.21-14.65-29.15-17.49-3.67-2.64-6.95-5.4-9.83-8.28l-17.32-17.32c-3.33-3.32-6.12-6.81-8.4-10.45-9.42-15.06-11.21-33.67-5.37-55.81,6.33-24.07,17.97-41.03,34.92-50.91,18.86-11,43.39-12.52,73.57-4.57,22.26,5.86,43.65,18.35,64.15,37.44l.37.35,17.32,17.32c1.97,1.98,3.16,4.35,3.58,7.14.44,2.96-.08,5.73-1.58,8.32l-26.8,46.45c-1.53,2.66-3.73,4.52-6.6,5.6s-5.76,1.12-8.66.13l-4.35-1.48c-.95-.33-1.83-.74-2.64-1.23l6.7,6.7c4.77,4.76,8.55,9.64,11.34,14.61,8.43,15.04,9.79,33.42,4.06,55.14-6.82,25.9-19.31,44.15-37.45,54.72-20.14,11.74-46.32,13.36-78.57,4.87-27.24-7.18-49.8-19.7-67.66-37.57l-17.33-17.32c-2.38-2.39-4.69-4.87-6.91-7.45-1.76-2.05-2.77-4.41-3.04-7.1-.27-2.68.26-5.2,1.58-7.55l29.99-53.41c1.68-3,4.17-5,7.45-6,3.29-.99,6.47-.72,9.53.83l4.19,2.12c1.24.63,2.34,1.42,3.28,2.36l17.32,17.32c.87.87,1.61,1.87,2.21,3,1.28,2.36,1.76,4.87,1.46,7.53-2.22,19.66-1.08,34.87,3.41,45.65,1.3.5,2.66.94,4.08,1.31,6.92,1.83,13.14.94,18.66-2.66ZM880.85,90.88c5.38-3.88,9.33-9.95,11.84-18.21.84-2.77,2.43-5,4.77-6.68,1.34-.97,2.77-1.64,4.28-2.03-8.05-4.83-16.23-7.7-24.55-8.6l-1.04,38.23c1.69-.77,3.26-1.68,4.7-2.71ZM357.42,181.74l.03-.09c1.05-2.63,2.77-4.69,5.18-6.18,2.4-1.49,5.02-2.11,7.84-1.88l4.75.41c3.12.26,5.76,1.48,7.93,3.65l.55.58,3.67,3.67-12.71-107.42c-.4-3.41-.8-6.16-1.18-8.26l-8.95-8.95c-1.88-1.88-3.01-4.38-3.39-7.5l-.55-4.55c-.45-3.64.5-6.88,2.83-9.71,2.33-2.82,5.32-4.37,8.98-4.64,13.31-.96,30.81-2.76,52.5-5.39l23.73-2.88c32.7-3.97,57.32-2.67,73.88,3.9,7.5,2.98,13.8,7.02,18.91,12.14l17.33,17.32c8.72,8.72,13.99,20.56,15.8,35.5,1.73,14.23-1.08,26.87-8.42,37.91-4.45,6.69-10.51,12.62-18.18,17.8l11.16,11.16c6.09,6.1,11.3,13.55,15.63,22.35l8.14,16.57c.64-7.35.72-16.58.25-27.7l-5.05-118.49c-.18-4.29-.42-7.56-.72-9.81l-7.51-7.5c-2.1-2.1-3.23-4.89-3.39-8.35l-.21-4.59c-.17-3.66,1.02-6.81,3.55-9.46,2.54-2.64,5.64-3.96,9.31-3.95,13.34.04,30.93-.44,52.75-1.43l23.89-1.09c32.9-1.5,57.36,1.65,73.38,9.45,6,2.92,11.14,6.52,15.41,10.79l17.32,17.32c9.66,9.66,14.87,22.77,15.62,39.33.66,14.32-3.09,26.71-11.25,37.17-5.11,6.56-11.9,12.19-20.36,16.88l7.66,7.65c7.23,7.24,13.05,16.33,17.44,27.27l6.24,15.58c.97-7.1,1.6-16.16,1.9-27.19l3.17-115.58c.14-5.1.09-8.77-.13-11.01l-6.28-6.28c-2.34-2.34-3.46-5.4-3.35-9.19l.12-4.59c.1-3.63,1.49-6.66,4.17-9.11s5.83-3.57,9.45-3.34c25.15,1.56,46.17,2.56,63.04,3.03l76.62,2.09c3.05.09,5.74,1.13,8.05,3.13l.73.68,17.32,17.32c1.88,1.88,3.05,4.16,3.51,6.84l9.9,57.28c.69,3.99-.29,7.52-2.94,10.58-2.65,3.07-6,4.54-10.05,4.43l-4.58-.12c-3.35-.09-6.14-1.22-8.38-3.37l-1.21,44.39,2.22-1c2.67-.93,5.36-.96,8.06-.11l4.55,1.43c2.03.65,3.76,1.67,5.17,3.08l5.26,5.27,10.21-104.99c.57-5.81.76-9.76.58-11.87l-5.2-5.2c-2.58-2.58-3.67-5.92-3.28-10.02l.45-4.57c.36-3.66,1.99-6.62,4.89-8.88,2.9-2.26,6.17-3.11,9.81-2.56,15.77,2.4,27.56,3.98,35.37,4.74,7.81.76,19.69,1.48,35.62,2.16,3.33.15,6.15,1.37,8.44,3.66l.7.75,17.32,17.32c2.41,2.78,3.44,6,3.08,9.66l-.44,4.56c-.53,5.41-3.35,9.03-8.47,10.85-1.78.63-2.94,2.46-3.49,5.49l-.51,3.88-12.7,130.36c-.53,5.42-.76,10.14-.7,14.16,15.13-2.81,33.52-18.78,55.15-47.93,1.76-2.37,4.06-3.94,6.9-4.72,2.85-.79,5.63-.61,8.35.53l4.11,1.71c1.61.67,2.99,1.58,4.14,2.73l8.05,8.05,17.66-105.68c1.1-6.53,1.55-10.72,1.36-12.56-.06-.42-.33-.88-.82-1.37-.31-.31-.7-.63-1.18-.96-.82-.56-1.54-1.16-2.18-1.8-2.86-2.86-3.93-6.49-3.19-10.88l.75-4.52c.61-3.63,2.44-6.47,5.49-8.53,3.05-2.05,6.37-2.68,9.96-1.88,15.57,3.48,27.23,5.86,34.97,7.15,7.74,1.3,19.53,2.83,35.39,4.61,2.99.34,5.5,1.52,7.53,3.55.45.45.88.94,1.28,1.47l17.32,17.32c2.22,2.94,3.02,6.22,2.41,9.85l-.75,4.52c-.9,5.36-3.97,8.78-9.2,10.24-1.82.51-3.1,2.26-3.85,5.24l-.78,3.84-21.62,129.18c-.97,5.82-1.54,10.84-1.71,15.06,15.1-2.36,34.15-16.98,57.13-43.87,1.91-2.24,4.32-3.65,7.21-4.24,2.89-.58,5.65-.22,8.29,1.1l3.98,2c1.3.65,2.42,1.45,3.38,2.41l17.32,17.32c1.23,1.22,2.17,2.7,2.84,4.43,1.2,3.09,1.2,6.17.01,9.25l-26.37,68.32c-1.09,2.84-2.96,5.02-5.61,6.53-2.64,1.51-5.47,2.01-8.47,1.51l-80.21-13.41-70.65-10.48c-2.81-.42-5.17-1.58-7.08-3.49-.5-.5-.97-1.05-1.41-1.65l-1.85-1.85-1.67,1.3c-2.53,1.69-5.31,2.39-8.35,2.09l-80.94-7.87-71.19-5.61c-3.15-.25-5.81-1.45-7.98-3.62l-.85-.93-.89-1.18-1.1.93c-2.39,1.81-5.09,2.67-8.09,2.59l-87.51-2.4-71.42-.64c-1.91-.02-3.66-.4-5.27-1.14l-29.86,1.07c-12.25.44-21.44.91-27.57,1.4-3.03.24-5.8-.5-8.3-2.23-.69-.47-1.31-.99-1.87-1.55l-17.32-17.32c-1.49-1.49-2.55-3.29-3.17-5.41l-5.73-19.6c-5.1-17.47-8.8-29.66-11.09-36.58l-1.29-3.87.53,10.32c.74,14.71,1.93,25.56,3.56,32.56.94,4.04,2.17,7.47,3.68,10.28l9.9,9.9c2.16,2.16,3.31,4.93,3.47,8.31l.21,4.59c.17,3.7-1.05,6.88-3.64,9.54-2.59,2.66-5.74,3.94-9.45,3.87-12.84-.27-27.19-.05-43.05.67-15.86.73-30.17,1.8-42.94,3.24-1.94.22-3.77.05-5.48-.52l-30.13,3.36c-12.18,1.36-21.31,2.51-27.38,3.46-3.01.47-5.82-.06-8.45-1.59-1-.58-1.89-1.26-2.67-2.04l-17.32-17.32c-1.25-1.26-2.21-2.77-2.88-4.53l-7.18-19.11c-6.41-17.04-11.03-28.91-13.87-35.62l-3.52-8.34,2.04,16.15c1.85,14.62,3.85,25.35,6.01,32.21.76,2.41,1.61,4.6,2.54,6.54l13.17,13.18c1.92,1.91,3.06,4.38,3.43,7.41l.55,4.55c.45,3.68-.52,6.95-2.91,9.79-2.38,2.85-5.42,4.37-9.13,4.57-12.83.69-27.12,2-42.88,3.91-15.76,1.91-29.95,4.07-42.57,6.46-3.64.69-6.97-.06-9.96-2.25l-1.2-.98-.97,1.29c-1.94,2.29-4.38,3.73-7.33,4.3l-85.91,16.85-69.82,15.03c-3.51.75-6.76.14-9.76-1.83-.79-.53-1.51-1.11-2.14-1.74l-17.32-17.32c-1.75-1.75-2.88-3.92-3.39-6.51l-.88-4.5c-.89-4.52.31-8.39,3.59-11.62,3.82-3.75,5.91-9.35,6.28-16.83.39-7.9-1.09-20.36-4.42-37.37l-10.58-53.94c-.8.39-1.66.71-2.59.96l-4.43,1.18c-3.23.86-6.22.58-8.98-.85l18.85,70.7c.92,3.42.49,6.67-1.29,9.74-1.77,3.06-4.37,5.05-7.8,5.96l-4.43,1.19c-2.79.74-5.52.56-8.19-.54-1.61-.66-3-1.58-4.17-2.74l-17.54-17.55-.21-.09c-6.34-2.61-14.13-2.85-23.37-.72l3.96,14.76c3.48,12.96,5.89,21.57,7.22,25.85,2.12,6.83,4.35,12.63,6.69,17.4.86.51,1.64,1.11,2.32,1.8l17.33,17.32c1.51,1.51,2.59,3.45,3.21,5.81l1.19,4.43c.95,3.59.45,6.96-1.52,10.1-1.96,3.15-4.77,5.08-8.41,5.8-12.6,2.48-26.57,5.76-41.91,9.85s-29.09,8.2-41.26,12.33c-3.51,1.19-6.9.91-10.18-.84-1.19-.64-2.24-1.41-3.13-2.3l-17.32-17.32c-1.53-1.53-2.6-3.44-3.21-5.71l-1.18-4.43c-1.2-4.52-.23-8.5,2.92-11.96,1.77-1.94,3.04-4.16,3.82-6.65,2.31-7.44.5-22.37-5.41-44.81l-31.28-118.58-12.42-12.42c-1.52-1.52-2.61-3.5-3.26-5.96l-1.18-4.43c-.94-3.51-.47-6.82,1.4-9.92,1.88-3.11,4.58-5.08,8.12-5.89,24.55-5.65,44.99-10.65,61.3-15l74.06-19.74c2.95-.79,5.82-.55,8.61.71,1.45.66,2.71,1.52,3.78,2.59l17.32,17.32c.97.97,1.78,2.1,2.42,3.41l10.89,22.03-3.77-18.7-10.62-10.62c-1.69-1.68-2.81-3.92-3.35-6.69l-.88-4.5c-.7-3.56,0-6.83,2.07-9.81,2.07-2.98,4.9-4.75,8.49-5.33,24.87-3.99,45.6-7.61,62.17-10.86l75.21-14.75c3-.59,5.84-.16,8.54,1.28,1.15.62,2.17,1.37,3.04,2.25l17.33,17.32c1.16,1.16,2.07,2.55,2.74,4.16l22.21,53.72c1.55,3.74,1.37,7.4-.55,10.97-1.91,3.57-4.86,5.74-8.83,6.52l-4.5.89c-3.28.64-6.25.16-8.91-1.45l8.66,44.16Z"/>
      <path class="cls-1" d="M961.86,204.19c2.81-7.93,5.07-20.77,6.8-38.52l11.19-115.08c.72-7.43.86-12.25.4-14.47-.63-3.02-2.87-5.43-6.72-7.22-1.32-.78-1.91-1.94-1.76-3.47l.91-9.37c.27-2.77,1.78-3.95,4.54-3.52,16.84,2.61,29.69,4.34,38.55,5.2,8.85.86,21.79,1.64,38.82,2.32,2.79.12,4.05,1.56,3.78,4.34l-.91,9.36c-.15,1.53-.95,2.56-2.4,3.07-5.21,1.25-8.32,4.96-9.35,11.13l-.54,4.08-12.69,130.36c-1.55,15.91-.54,26.68,3.04,32.31,2.28,3.58,6.33,5.65,12.15,6.22,5.43.53,11.23-.58,17.42-3.33,15.58-6.91,32.79-23.32,51.6-49.22,1.15-1.58,2.62-2,4.43-1.25l8.62,3.6c2.15.9,2.88,2.46,2.19,4.69l-23.08,74.71c-.6,1.96-1.92,2.84-3.96,2.64l-83.43-8.11-73.99-5.83c-2.66-.21-3.86-1.65-3.61-4.31l.88-9.03c.13-1.27.75-2.21,1.88-2.8,6.95-3.24,12.03-9.41,15.24-18.5ZM648.87,38.01l3.12,68.49c1.72,0,3.64-.05,5.76-.15,9.34-.43,16.23-3.08,20.69-7.96,5.28-5.78,7.63-15.09,7.04-27.92-.59-13.1-3.74-22.26-9.44-27.46-4.45-4.06-10.83-5.91-19.13-5.53-3,.14-5.68.31-8.04.53ZM483.21,85.77c-1.58-13.03-5.4-21.92-11.47-26.67-4.75-3.72-11.25-5.08-19.5-4.08-2.98.36-5.64.74-7.97,1.13l8.26,68.06c1.71-.13,3.62-.33,5.72-.58,9.28-1.13,15.96-4.29,20.04-9.49,4.83-6.17,6.47-15.63,4.92-28.37ZM1345.52,150.68c-.79,1.97-2.23,2.73-4.31,2.29l-11.18-2.4c-2.08-.45-3.07-1.74-2.99-3.86l3.1-77.18c.13-3.03.36-5.38.72-7.03,1.73-8.07,5.18-13.77,10.36-17.12,4.85-3.13,10.77-3.95,17.77-2.45,6.94,1.49,11.95,4.63,15.05,9.42,3.26,5.04,4.06,11.46,2.38,19.26-.66,3.11-1.33,5.56-1.99,7.33l-28.91,71.74ZM575.89,241.42l-29.43,3.28c-13.08,1.46-23.08,2.75-30,3.86-2.02.32-3.39-.47-4.11-2.38l-8.02-21.34c-6.43-17.1-11.06-29.05-13.88-35.84-4.42-10.66-8.42-18.86-11.98-24.61-6.73-10.86-14.36-15.89-22.87-15.08l4.22,33.33c1.9,14.98,3.98,26.07,6.24,33.27,3.5,11.16,9.07,18.34,16.71,21.56,1.17.57,1.83,1.49,1.99,2.78l1.1,9.13c.34,2.81-.9,4.29-3.73,4.43-13.93.7-29.32,2.08-46.18,4.12-16.86,2.05-32.14,4.4-45.83,7.05-2.78.54-4.34-.6-4.68-3.41l-1.11-9.13c-.16-1.29.27-2.35,1.27-3.18,3.36-2.47,5.92-5.56,7.66-9.26,3.82-8.1,4.3-24.25,1.44-48.46l-13.94-117.78c-.88-7.4-1.78-12.13-2.7-14.19-1.27-2.82-3.98-4.68-8.12-5.6-1.46-.48-2.29-1.48-2.47-3.01l-1.13-9.33c-.34-2.75.88-4.22,3.64-4.41,14.36-1.01,32.91-2.89,55.66-5.65l23.73-2.88c31.66-3.84,55.29-2.67,70.88,3.52,18,7.15,28.3,21.37,30.88,42.67,1.55,12.73-.93,23.99-7.44,33.77-5.99,9.01-15.34,16.57-28.07,22.69,15.76,5.99,27.85,17.56,36.29,34.72l9.43,19.21c7.1,14.43,12.26,23.87,15.49,28.31,1.93,2.66,3.89,4.72,5.9,6.2.52-.72,1.01-1.48,1.46-2.27,4.42-7.79,6.11-23.87,5.07-48.22l-5.04-118.49c-.32-7.45-.86-12.23-1.63-14.36-1.05-2.9-3.61-4.97-7.67-6.19-1.42-.59-2.17-1.65-2.24-3.19l-.42-9.39c-.13-2.76,1.19-4.14,3.96-4.13,14.39.08,33.03-.4,55.92-1.44l23.89-1.09c31.86-1.45,55.33,1.5,70.41,8.84,17.42,8.48,26.61,23.44,27.59,44.88.58,12.81-2.74,23.84-9.96,33.11-6.65,8.53-16.55,15.37-29.7,20.52,15.26,7.15,26.45,19.6,33.57,37.35l7.97,19.85c5.99,14.93,10.43,24.74,13.31,29.4,1.72,2.79,3.52,4.99,5.4,6.61,2.84-3.46,5.02-7.92,6.53-13.37,2.25-8.11,3.61-21.07,4.1-38.91l3.17-115.57c.2-7.46,0-12.28-.62-14.46-.83-2.97-3.23-5.22-7.2-6.74-1.37-.69-2.04-1.8-2-3.34l.26-9.37c.07-2.72,1.47-4,4.19-3.82,26.17,1.65,48.2,2.72,66.09,3.21l79,2.16c2.06.05,3.26,1.1,3.61,3.13l10.85,62.76c.57,3.28-.81,4.88-4.15,4.79l-9.33-.26c-1.18-.03-2.1-.53-2.78-1.5-21.97-31.76-45.51-47.98-70.61-48.66l-1.82-.05-1.96,71.27c1.57.14,2.83.22,3.79.25,11.99.33,21.56-2.08,28.7-7.23,7.08-5.1,12.01-12.96,14.78-23.57.55-1.81,1.77-2.7,3.67-2.64l9.61.26c2.61.07,3.88,1.41,3.81,4.02l-2.36,86.42c-.07,2.61-1.42,3.88-4.03,3.81l-9.61-.27c-1.9-.05-3.07-.99-3.52-2.84-2.19-10.75-6.68-18.86-13.47-24.34-6.85-5.53-16.27-8.46-28.26-8.79-.96-.02-2.22,0-3.79.05l-1.2,43.58c-.43,15.95,2.06,26.79,7.49,32.53,2.96,3.12,7.07,4.76,12.32,4.9,21.23.58,44.74-18.46,70.55-57.13,1.02-1.53,2.41-2.02,4.16-1.46l9.19,2.9c2.33.73,3.19,2.28,2.59,4.64l-19.23,76.12c-.49,1.95-1.74,2.89-3.75,2.84l-89.97-2.47-74.22-.67c-1.38-.01-2.39-.38-3.04-1.1l-29.56,1.06c-13.15.48-23.22,1.01-30.21,1.59-2.04.18-3.34-.72-3.92-2.68l-6.39-21.88c-5.13-17.54-8.84-29.8-11.14-36.78-3.61-10.96-6.98-19.44-10.1-25.44-5.9-11.34-13.12-16.93-21.67-16.76l1.7,33.55c.77,15.08,2,26.3,3.72,33.65,2.65,11.39,7.67,18.97,15.04,22.75,1.12.65,1.72,1.63,1.77,2.92l.42,9.19c.13,2.83-1.22,4.21-4.05,4.14-13.94-.35-29.4-.14-46.36.64-16.97.77-32.38,1.96-46.23,3.58-1.46.17-2.55-.08-3.29-.76ZM178.48,74.05c25.89-4.13,47.62-7.91,65.18-11.36l77.56-15.21c2.02-.39,3.42.36,4.21,2.26l24.34,58.86c1.27,3.08.27,4.94-3,5.59l-9.16,1.79c-1.16.23-2.17-.06-3.04-.86-28.4-26.17-54.92-36.83-79.56-32l-1.79.36,13.72,69.96c1.56-.21,2.81-.4,3.75-.59,11.77-2.3,20.57-6.75,26.41-13.34,5.79-6.53,8.88-15.27,9.26-26.24.14-1.89,1.14-3.01,3-3.38l9.43-1.85c2.57-.5,4.1.53,4.6,3.09l16.64,84.83c.5,2.56-.53,4.1-3.09,4.6l-9.44,1.85c-1.86.37-3.21-.3-4.06-2-4.49-10.01-10.65-16.94-18.47-20.8-7.9-3.89-17.73-4.68-29.5-2.38-.94.19-2.17.48-3.7.88l8.39,42.79c3.07,15.65,7.89,25.68,14.44,30.09,3.58,2.4,7.94,3.1,13.09,2.08,20.84-4.08,39.61-27.82,56.31-71.2.66-1.72,1.91-2.5,3.74-2.34l9.61.81c2.43.21,3.61,1.53,3.54,3.96l-2.08,78.49c-.05,2-1.06,3.2-3.03,3.59l-88.32,17.31-72.57,15.62c-2.61.56-4.17-.47-4.68-3.09l-1.75-8.91c-.25-1.25.09-2.32,1-3.22,5.72-5.09,8.82-12.45,9.3-22.08.41-8.41-1.09-21.36-4.53-38.86l-22.25-113.47c-1.43-7.31-2.69-11.97-3.76-13.97-1.47-2.71-4.31-4.38-8.51-4.99-1.49-.37-2.38-1.31-2.68-2.82l-1.8-9.2c-.53-2.67.56-4.22,3.25-4.65ZM152.89,312.07c.73,2.74-.3,4.37-3.08,4.91-13.69,2.63-28.75,6.14-45.16,10.51-16.41,4.38-31.21,8.83-44.4,13.37-2.67.92-4.38,0-5.11-2.73l-2.37-8.88c-.33-1.26-.06-2.37.81-3.32,2.99-2.93,5.09-6.34,6.3-10.24,2.66-8.56.88-24.62-5.33-48.19l-30.13-114.37c-1.9-7.21-3.45-11.77-4.65-13.68-1.65-2.61-4.59-4.09-8.82-4.41-1.52-.28-2.47-1.15-2.87-2.64l-2.41-9.05c-.7-2.64.27-4.26,2.93-4.86,25.56-5.85,46.99-11.08,64.28-15.69l76.36-20.37c1.99-.53,3.44.13,4.36,1.98l28.22,57.09c1.48,2.99.6,4.92-2.62,5.78l-9.02,2.4c-1.14.31-2.17.09-3.09-.65-30.09-24.21-57.26-33.08-81.52-26.61l-1.77.47,18.37,68.89c1.54-.31,2.78-.59,3.7-.83,11.59-3.09,20.08-8.12,25.47-15.08,5.34-6.9,7.83-15.84,7.48-26.8,0-1.9.93-3.09,2.76-3.58l9.3-2.47c2.52-.68,4.12.25,4.79,2.77l22.27,83.53c.68,2.52-.25,4.12-2.77,4.8l-9.3,2.47c-1.83.49-3.22-.08-4.18-1.72-5.15-9.69-11.76-16.19-19.82-19.52-8.14-3.35-18.01-3.49-29.6-.4-.92.25-2.12.62-3.61,1.12l5.53,20.59c3.5,13.03,5.93,21.73,7.28,26.08,6.96,22.38,15.86,35.03,26.69,37.97,1.24.39,2.02,1.22,2.36,2.47l2.37,8.89ZM1405.54,279.84c4.94,7.2,12.05,12.03,21.35,14.48,8.68,2.29,16.54,1.14,23.59-3.46,7.26-4.73,12.21-12.12,14.86-22.17,1.92-7.26,1.69-13.71-.69-19.36-2.8-6.65-8.68-12.53-17.64-17.62-16.29-9.25-26.39-15.28-30.29-18.09-7.24-5.21-12.78-10.88-16.6-17-8.48-13.57-10.03-30.57-4.65-51,5.91-22.42,16.6-38.14,32.08-47.16,17.4-10.15,40.38-11.46,68.92-3.94,21.99,5.79,43.08,18.31,63.26,37.57,1.44,1.37,1.67,2.92.67,4.64l-29.17,50.56c-1.03,1.79-2.53,2.35-4.49,1.68l-8.96-3.05c-2.05-.7-2.89-2.12-2.51-4.26,4.2-21.12,2.98-36.87-3.66-47.24-4.04-6.3-10.33-10.57-18.89-12.83-6.66-1.75-12.74-.74-18.23,3.04-5.82,3.99-9.84,10.21-12.06,18.65-2.37,8.99-1.64,16,2.2,21.03,3.18,4.15,10.96,9.67,23.35,16.53,20.02,11.11,33.42,22.7,40.2,34.77,7.62,13.6,8.78,30.45,3.48,50.57-6.39,24.27-17.93,41.26-34.6,50.99-18.67,10.88-43.31,12.29-73.91,4.23-30.33-7.99-54.62-22.88-72.9-44.67-1.1-1.31-1.23-2.72-.39-4.22l32.34-57.59c1.21-2.16,2.93-2.68,5.14-1.56l8.45,4.28c1.52.77,2.17,1.99,1.96,3.68-3.38,26.49-.78,46,7.79,58.52ZM1137.14,222.2c3.35-7.72,6.49-20.38,9.43-37.97l19.06-114.04c1.23-7.36,1.69-12.16,1.39-14.41-.42-3.06-2.49-5.61-6.21-7.66-1.27-.88-1.77-2.07-1.52-3.59l1.55-9.28c.46-2.75,2.05-3.82,4.77-3.2,16.63,3.75,29.33,6.36,38.1,7.83,8.78,1.47,21.64,3.13,38.58,4.98,2.77.31,3.93,1.83,3.47,4.59l-1.55,9.28c-.26,1.51-1.12,2.48-2.6,2.89-5.29.9-8.65,4.38-10.1,10.47l-.81,4.03-21.62,129.18c-2.63,15.77-2.36,26.58.83,32.44,2.02,3.73,5.92,6.07,11.69,7.04,5.38.9,11.25.19,17.6-2.12,16.03-5.83,34.32-21.02,54.87-45.57,1.25-1.5,2.75-1.81,4.49-.94l8.36,4.19c2.08,1.04,2.71,2.65,1.87,4.82l-28.16,72.95c-.73,1.91-2.11,2.7-4.13,2.36l-82.67-13.82-73.42-10.89c-2.64-.39-3.75-1.9-3.31-4.54l1.5-8.95c.21-1.26.9-2.15,2.07-2.67,7.15-2.75,12.64-8.56,16.47-17.4Z"/>
      <path class="cls-3" d="M950.79,232.38l.45-4.57c7.68-4.05,13.32-11.18,16.93-21.39,2.99-8.44,5.37-21.81,7.15-40.11l11.19-115.08c.79-8.09.88-13.58.29-16.46-.91-4.39-3.64-7.94-8.18-10.63l.44-4.56c16,2.43,28.02,4.04,36.06,4.82,8.04.78,20.14,1.52,36.31,2.21l-.44,4.57c-6.64,2.36-10.61,7.66-11.92,15.92l-.56,4.29-12.69,130.37c-1.7,17.43-.35,29.61,4.06,36.54,3.44,5.41,9.16,8.51,17.14,9.29,21.15,2.05,45.7-15.74,73.65-53.39l4.11,1.71-21.62,69.97-81.17-7.89-71.2-5.61ZM459.06,130.27c23.85-2.89,34.11-18,30.8-45.31-3.29-27.1-16.1-39.29-38.43-36.58-6.07.74-10.92,1.54-14.55,2.42l9.75,80.32c3.08.06,7.23-.22,12.43-.85ZM641.91,32.12l3.68,80.82c3.07.3,7.23.33,12.46.09,24-1.09,35.37-15.38,34.12-42.86-1.25-27.27-13.1-40.39-35.57-39.37-6.11.28-11,.72-14.69,1.32ZM1336.83,69.8c.1-2.65.3-4.62.57-5.9,2.57-11.96,9.29-16.77,20.18-14.43,10.68,2.29,14.78,9.2,12.3,20.73-.59,2.78-1.16,4.89-1.69,6.34l-27.96,69.37-6.4-1.37,3-74.74ZM1553.44,135.41l-26.8,46.46-4.36-1.49c6.48-36.9-2.81-58.66-27.85-65.26-8.64-2.27-16.55-.94-23.73,3.99-7.18,4.94-12.1,12.43-14.74,22.46-2.93,11.1-1.81,20.04,3.36,26.8,3.74,4.9,12.21,11,25.41,18.32,18.92,10.49,31.46,21.22,37.61,32.2,6.75,12.02,7.7,27.21,2.85,45.59-12.62,47.93-46.07,64.75-100.34,50.45-28.31-7.46-51.02-21.12-68.12-40.98l29.99-53.41,4.18,2.12c-5.05,44.73,6.38,70.78,34.29,78.13,10.59,2.79,20.24,1.35,28.94-4.32,8.7-5.67,14.6-14.36,17.68-26.07,4.93-18.73-2.23-33.56-21.5-44.51-16.08-9.13-25.97-15.03-29.68-17.7-6.53-4.7-11.48-9.74-14.84-15.12-7.46-11.93-8.74-27.18-3.85-45.75,11.63-44.13,42.57-59.57,92.83-46.33,20.18,5.31,39.73,16.79,58.67,34.42ZM844.75,121.6l-1.36,49.77c-.8,29.03,7.97,43.8,26.31,44.3,23.1.63,48.09-18.78,74.99-58.24l4.55,1.44-18.01,71.26-87.75-2.4-71.41-.64.03-1.34-35.74,1.28c-12.44.44-21.82.92-28.13,1.43l-5.73-19.6c-5.15-17.61-8.88-29.94-11.21-37-3.72-11.3-7.23-20.11-10.51-26.43-7.33-14.08-16.8-20.86-28.41-20.34-1.13.06-3.19.37-6.19.94l2.01,39.62c.78,15.48,2.08,27.09,3.88,34.83,2.97,12.7,8.54,21.42,16.73,26.17l.21,4.58c-13.13-.28-27.77-.05-43.91.68-16.14.74-30.73,1.84-43.78,3.31l-.05-1.13-35.55,3.96c-12.37,1.38-21.69,2.56-27.95,3.54l-7.18-19.11c-6.46-17.17-11.11-29.19-13.96-36.05-4.56-10.98-8.72-19.5-12.47-25.56-8.37-13.5-18.32-19.55-29.86-18.15-1.12.14-3.15.61-6.1,1.4l4.98,39.36c1.95,15.38,4.11,26.85,6.5,34.44,3.9,12.44,10.12,20.72,18.64,24.83l.55,4.55c-13.11.72-27.69,2.05-43.73,3.99-16.04,1.95-30.51,4.15-43.41,6.59l-.55-4.55c3.49-2.89,6.2-6.38,8.13-10.47,4.37-9.26,5.05-26.63,2.03-52.11l-13.94-117.77c-.95-8.08-2.04-13.46-3.24-16.15-1.84-4.09-5.26-6.96-10.28-8.61l-.56-4.55c13.52-.98,31.23-2.8,53.12-5.46l23.74-2.88c30.53-3.7,53.06-2.67,67.6,3.1,15.54,6.17,24.45,18.59,26.71,37.26,3.32,27.37-14.47,46.58-53.39,57.62,25.37,1.07,43.63,12.98,54.8,35.7l9.44,19.21c7.26,14.78,12.62,24.55,16.08,29.3,3.93,5.4,8.19,8.94,12.78,10.62,2.3-2.11,4.23-4.56,5.81-7.33,5.05-8.91,7.03-26.17,5.94-51.81l-5.05-118.49c-.34-8.12-1.02-13.57-2.02-16.34-1.52-4.22-4.72-7.33-9.6-9.36l-.21-4.58c13.55.04,31.35-.44,53.38-1.45l23.88-1.08c30.73-1.4,53.12,1.32,67.18,8.17,15.03,7.32,22.98,20.37,23.83,39.16,1.26,27.54-17.93,45.36-57.56,53.44,25.21,2.98,42.53,16.22,51.96,39.73l7.96,19.85c6.13,15.29,10.74,25.44,13.83,30.43,3.54,5.72,7.55,9.58,12.03,11.6,5.6-4.63,9.61-11.33,12.04-20.09,2.39-8.63,3.84-22.14,4.34-40.51l3.16-115.58c.23-8.13-.06-13.62-.86-16.45-1.21-4.32-4.18-7.66-8.9-10.03l.13-4.59c25.3,1.57,46.46,2.59,63.48,3.05l76.62,2.1,9.9,57.28-4.58-.12c-23.11-32.74-48.1-49.48-74.98-50.22-3.71-.1-6.55-.07-8.52.09l-2.29,83.82c4.79.57,8.27.89,10.46.95,25.96.71,42.43-10.42,49.41-33.38l4.58.12-2.21,80.87-4.59-.12c-5.7-23.31-21.54-35.32-47.51-36.03-2.18-.06-5.68.06-10.49.36ZM60.86,333.6l-1.18-4.43c3.05-3.34,5.25-7.18,6.59-11.5,3.04-9.78,1.29-27.07-5.25-51.88l-30.13-114.37c-2.07-7.86-3.89-13.04-5.46-15.53-2.39-3.8-6.18-6.16-11.38-7.09l-1.19-4.43c24.7-5.69,45.28-10.72,61.74-15.11l74.06-19.75,25.76,52.12-4.43,1.18c-31.46-24.83-60.17-33.79-86.15-26.86-3.59.95-6.3,1.79-8.14,2.51l21.6,81.02c4.75-.82,8.19-1.51,10.3-2.07,25.1-6.69,37.73-22.04,37.89-46.04l4.43-1.18,20.85,78.18-4.44,1.18c-12.09-20.73-30.68-27.75-55.78-21.06-2.11.56-5.43,1.67-9.96,3.33l7.14,26.57c3.52,13.12,5.97,21.9,7.35,26.34,7.47,24,17.28,37.94,29.42,41.83l1.18,4.43c-12.89,2.53-27.14,5.88-42.75,10.04s-29.64,8.35-42.07,12.57ZM198.55,108.4c-1.57-7.98-3.05-13.27-4.45-15.86-2.13-3.95-5.75-6.56-10.88-7.84l-.88-4.5c25.02-4.02,45.89-7.66,62.61-10.94l75.21-14.75,22.22,53.72-4.5.88c-29.73-26.88-57.78-37.73-84.16-32.56-3.64.71-6.41,1.37-8.29,1.96l16.13,82.28c4.8-.49,8.27-.95,10.41-1.37,25.49-5,39.12-19.46,40.89-43.4l4.5-.88,15.57,79.39-4.5.88c-10.68-21.49-28.76-29.74-54.25-24.74-2.14.42-5.53,1.31-10.16,2.66l9.58,48.86c5.59,28.49,17.38,40.98,35.38,37.45,22.68-4.45,42.81-28.87,60.4-73.26l4.76.4-1.95,73.48-86.14,16.89-69.82,15.03-.88-4.5c6.19-6.09,9.55-14.53,10.09-25.34.44-8.95-1.1-22.44-4.64-40.48l-22.25-113.46ZM1275.25,273.48l-80.44-13.44-70.64-10.48.75-4.53c7.94-3.52,14.06-10.24,18.36-20.17,3.56-8.22,6.86-21.4,9.89-39.53l19.06-114.04c1.34-8.02,1.81-13.49,1.41-16.41-.6-4.44-3.08-8.16-7.43-11.16l.76-4.53c15.79,3.53,27.67,5.96,35.64,7.29,7.97,1.33,20,2.9,36.08,4.7l-.76,4.52c-6.78,1.9-11.11,6.92-12.98,15.07l-.85,4.25-21.61,129.18c-2.89,17.28-2.38,29.52,1.54,36.74,3.06,5.63,8.55,9.11,16.47,10.44,20.95,3.5,46.67-12.57,77.13-48.21l3.98,1.99-26.36,68.32Z"/>
      <polygon class="cls-2" points="254.17 397.37 246.26 422.72 268.19 407.74 289.85 423.1 282.38 397.62 303.69 381.76 277.14 380.98 268.64 355.82 259.7 380.83 233.14 381.14 254.17 397.37"/>
      <polygon class="cls-2" points="175.45 394.24 170.67 409.56 183.92 400.51 197.01 409.79 192.5 394.39 205.37 384.81 189.33 384.34 184.19 369.14 178.79 384.25 162.74 384.44 175.45 394.24"/>
      <polygon class="cls-2" points="1329.44 397.37 1337.35 422.72 1315.42 407.74 1293.75 423.1 1301.22 397.62 1279.92 381.76 1306.46 380.98 1314.96 355.82 1323.9 380.83 1350.46 381.14 1329.44 397.37"/>
      <polygon class="cls-2" points="1408.16 394.24 1412.94 409.56 1399.68 400.51 1386.59 409.79 1391.11 394.39 1378.23 384.81 1394.27 384.34 1399.41 369.14 1404.81 384.25 1420.86 384.44 1408.16 394.24"/>
      <path class="cls-2" d="M861.28,353.47c6.84-1.34,12.44-3.48,16.81-6.4,5.73-3.84,8.6-8.3,8.6-13.36,0-2.78-.93-5.06-2.8-6.85-1.87-1.8-4.25-2.69-7.14-2.69-.35,0-.69.01-1.04.04-10.9.92-16.35,7.14-16.35,18.67,0,3.43.64,6.96,1.92,10.59ZM1100.23,400.41c1.49,1.61,3.08,2.42,4.77,2.42,3.26,0,6.62-2.91,10.07-8.72,2.78-4.7,4.18-8.77,4.18-12.21,0-2.35-.74-3.52-2.2-3.52-2.43,0-5.94,3.2-10.54,9.62-2.67,3.72-4.76,7.86-6.28,12.41ZM1044.15,369.72c-2.54,0-4.7-.89-6.47-2.66-1.78-1.78-2.67-3.94-2.67-6.48s.89-4.7,2.67-6.48c1.77-1.77,3.93-2.66,6.47-2.66s4.7.88,6.48,2.66,2.67,3.94,2.67,6.48-.89,4.7-2.67,6.48c-1.78,1.77-3.94,2.66-6.48,2.66ZM512.79,392.34c-3.97,7.86-7.75,14.57-11.34,20.15-.25.85-.38,1.71-.38,2.57,0,1.98.64,3.63,1.94,4.93,1.29,1.31,2.92,1.96,4.88,1.96,2.41,0,4.22-.85,5.43-2.55,1.02-1.44,1.53-3.49,1.53-6.16,0-1.65-.31-4.91-.93-9.78-.62-4.91-1-8.62-1.13-11.12ZM351.59,421.93c-1.86.8-2.79,1.77-2.79,2.93,0,1.71,1.91,2.57,5.72,2.57,3.39,0,7.11-2.03,11.18-6.1-2.24-.4-4.68-.61-7.32-.61s-4.94.41-6.79,1.21ZM906.48,402.83c3.26,0,6.62-2.91,10.07-8.72,2.79-4.7,4.18-8.77,4.18-12.21,0-2.35-.73-3.52-2.2-3.52-2.42,0-5.93,3.2-10.53,9.62-2.68,3.72-4.77,7.86-6.28,12.41,1.48,1.61,3.07,2.42,4.76,2.42ZM550.25,419.49c0,2.58,1.33,3.88,4.01,3.88,1.16,0,2.36-.42,3.59-1.26,3.41-2.32,7.1-8.04,11.08-17.17,3.69-8.46,5.53-14.04,5.53-16.73,0-1.89-.91-2.84-2.73-2.84-5.12,0-10.39,6.17-15.82,18.5l-3.66,8.33c-1.34,3.04-2,5.47-2,7.29ZM685.72,421.33c4.01,0,9.9-7.11,17.66-21.34,4.61-8.44,6.91-14.37,6.91-17.79,0-1.95-.81-2.93-2.42-2.93-1.03,0-2.12.36-3.26,1.07-3.7,2.29-8.99,9.71-15.88,22.28-3.88,7.06-5.82,12.2-5.82,15.39,0,2.22.94,3.32,2.81,3.32ZM495.97,354.1c1.78-1.77,3.93-2.66,6.47-2.66s4.7.89,6.48,2.66c1.78,1.78,2.67,3.94,2.67,6.48s-.89,4.7-2.67,6.48c-1.78,1.77-3.93,2.66-6.48,2.66s-4.69-.89-6.47-2.66c-1.78-1.78-2.67-3.94-2.67-6.48s.89-4.7,2.67-6.48ZM623.55,377.85c-4.6,0-9.93,7.26-16,21.76-2.72,6.5-4.07,11.96-4.07,16.38,0,4.65,1.4,6.97,4.22,6.97,4.33,0,9.26-7.19,14.78-21.56,2.72-7.09,4.08-12.84,4.08-17.25s-1.01-6.3-3.01-6.3ZM869.93,370.19c3.56,4.99,6.03,8.83,7.42,11.51,2.88,5.58,4.32,11.45,4.32,17.61,0,7.74-2.34,14.73-7.03,20.97-11.17,14.88-24.46,22.32-39.88,22.32-1.95,0-3.95-.12-5.99-.36-5.51-.64-10.47-2.42-14.89-5.34-10.35-6.83-15.53-16.76-15.53-29.78,0-9.37,3.08-17.32,9.24-23.84,5.29-5.6,11.51-8.4,18.65-8.4,6.77,0,12.29,2.55,16.55,7.64-1.27-.23-2.54-.35-3.81-.35-4.88,0-9.32,1.64-13.31,4.93-4.87,4.01-7.82,9.19-8.86,15.54-.23,1.39-.35,2.77-.35,4.16,0,12.51,6.06,20.63,18.18,24.34,3.39,1.04,6.63,1.56,9.73,1.56,9.31,0,16.15-4.41,20.51-13.22,1.65-3.33,2.47-7,2.47-11.03,0-7.45-2.59-14.86-7.76-22.22-5.37-7.65-8.68-12.53-9.93-14.64-2.07-3.5-3.55-6.9-4.43-10.2-2.9.37-5.62.55-8.17.55-5.82,0-10.58-.94-14.29-2.8-5.25-2.65-7.88-6.65-7.88-12,0-5.64,2.45-10.16,7.35-13.57,2.7-1.88,5.62-2.82,8.76-2.82,3.59,0,7.11,1.21,10.57,3.62-2.9.12-5.76,1.74-8.59,4.88-2.83,3.13-4.25,6.25-4.25,9.34,0,5.21,4.27,7.82,12.82,7.82.91,0,1.87-.03,2.87-.1-.09-1.11-.14-2.22-.14-3.32,0-8.19,2.23-15.27,6.69-21.24,6.46-8.65,16.06-12.97,28.81-12.97s18.66,4.16,18.66,12.47c0,1.42-.25,2.89-.76,4.39-3.77,11.31-15.36,18.95-34.77,22.91.8,2.33,3.14,6.21,7.02,11.64ZM649.16,413.24c0-1.65-.31-4.91-.93-9.78-.79-6.26-1.18-10.57-1.18-12.91v-.23c-3.47,3.23-7.61,4.84-12.43,4.84l-1.12-.04c-.85,3.22-2.08,6.6-3.68,10.15-8.19,18.19-18.81,27.28-31.88,27.28l-1.21-.04c-6.28-.46-9.41-4.79-9.41-12.98,0-5.67,1.64-11.84,4.94-18.51,1.57-3.18,3.24-6.1,5.03-8.75-3.2,1.65-6.64,2.6-10.32,2.85-.58,2.17-1.89,5.62-3.92,10.34-7.81,18.06-16.18,27.21-25.13,27.46-2.88,0-5.28-.93-7.21-2.78s-2.98-4.25-3.16-7.18l-16.25,37.18h-13.41l21.76-49.96c-2.6,4.06-5.05,7.45-7.36,10.16-3.94,4.62-7.91,7.95-11.92,10-3.36,1.72-7.17,2.58-11.42,2.58-3.49,0-6.36-1.31-8.62-3.92-2.27-2.62-3.4-5.94-3.4-9.96-6.87,9.25-12.96,13.88-18.26,13.88-5.73,0-8.6-3.01-8.6-9.01,0-4.12,1.38-8.84,4.13-14.16l16.26-33.12h13.81l-17.33,38.02c-1.24,2.71-1.85,4.45-1.85,5.21,0,.85.5,1.27,1.51,1.27.83,0,1.89-.43,3.16-1.31,3.26-2.22,7.08-6.45,11.46-12.68,4.38-6.22,8.31-13.01,11.79-20.35.86-5.35,3.77-8.74,8.74-10.16h12.8c-5.24,3.44-7.85,8.6-7.85,15.47,0,1.92.24,4.91.74,8.96.51,4.26.77,7.45.77,9.58,0,4.14-.59,7.71-1.79,10.69,6.84-5.12,14.21-15.65,22.12-31.57l5.72-13.13h13.41l-4.27,9.55c6.58-7.99,12.68-11.99,18.29-11.99,4.97,0,7.46,3.09,7.46,9.27,0,2.14-.32,4.6-.96,7.4h.88c4.49,0,8.53-1.25,12.12-3.77,2.28-2.7,4.71-5.02,7.29-6.99,5.36-4.08,10.59-6.11,15.7-6.11,7.22,0,10.83,3.89,10.83,11.68,0,1.54-.17,3.2-.49,4.98,1.07.22,2.12.32,3.16.32,3.97,0,7.18-1.39,9.64-4.18.86-5.35,3.77-8.74,8.74-10.16h12.8c-5.24,3.44-7.85,8.6-7.85,15.47,0,1.92.24,4.91.74,8.96.51,4.26.77,7.45.77,9.58,0,4.14-.59,7.71-1.79,10.69,2.46-1.84,4.98-4.38,7.58-7.61.91-3.3,2.39-6.79,4.43-10.46,10.76-19.24,21.72-28.86,32.9-28.86,4.61,0,6.91,2.27,6.91,6.82v.49s2.43-5.08,2.43-5.08h13.82l-15.44,34.34c-.31.7-.78,1.7-1.41,3.01-1.45,3.03-2.18,4.97-2.18,5.82s.52,1.33,1.56,1.33c.79,0,1.8-.42,3.03-1.27,3.2-2.21,7.01-6.44,11.42-12.68,2.73-3.86,5.29-7.93,7.69-12.2l29.26-60.81h13.82l-35.76,76.8c-.35.86-.9,2.1-1.65,3.7-1.26,2.69-1.89,4.43-1.89,5.19,0,.85.5,1.27,1.51,1.27.83,0,1.89-.43,3.16-1.31,3.26-2.22,7.08-6.45,11.46-12.68,4.38-6.22,8.31-13.01,11.79-20.35.31-.19.63-.28.96-.28.73,0,1.1.35,1.1,1.04l-.03.26c-14.69,30.07-26.81,45.11-36.37,45.11-5.73,0-8.59-3.01-8.59-9.01,0-2.32.43-4.82,1.3-7.51-7.7,11.01-14.48,16.52-20.34,16.52-5.51,0-8.26-3.58-8.26-10.75,0-2,.31-4.04.94-6.12-7.15,10.97-13.59,16.46-19.3,16.46-6.25,0-9.38-3.71-9.38-11.13l.07-1.84-.68.8c-3.93,4.62-7.9,7.95-11.91,10-3.36,1.72-7.17,2.58-11.42,2.58-3.49,0-6.36-1.31-8.62-3.92-2.27-2.62-3.4-5.94-3.4-9.96,0-2.75.72-5.29,2.14-7.63s2.97-3.51,4.64-3.51l.36.02c-2,2.35-3,4.73-3,7.14,0,1.98.64,3.63,1.94,4.93,1.29,1.31,2.92,1.96,4.88,1.96,2.41,0,4.22-.85,5.42-2.55,1.03-1.44,1.54-3.49,1.54-6.16ZM380.55,342.51c15.37-14.34,33.05-21.51,53.05-21.51,3.39,0,6.7.25,9.92.74,6.97,1.07,12.95,3.4,17.95,6.99,10.72,7.7,16.08,19.87,16.08,36.51,0,20.42-6.87,38.69-20.62,54.8-10.63,12.48-22.76,19.35-36.37,20.62-1.75.16-3.46.24-5.11.24-5.04,0-9.86-.84-14.45-2.5-3.62-1.32-8.46-3.87-14.53-7.66l-4.31-2.7c-9.02,8.8-18.23,13.21-27.64,13.21-5.34-.14-9.38-1.55-12.12-4.22-2.09-2.04-3.14-4.5-3.14-7.4,0-4.07,1.78-7.53,5.35-10.38,3.56-2.85,7.95-4.32,13.16-4.42,4.02,0,8.29.34,12.8,1.02,4.64-5.75,10.46-14.9,17.47-27.44,20.21-36.13,39.1-54.2,56.68-54.2,1.78,0,3.55.19,5.3.56-6.4,1.73-12.56,6.65-18.5,14.78-3.81,5.22-9.99,15.73-18.52,31.53l-5.48,10.16c-6.67,12.36-13.1,22.33-19.27,29.89,7.7,2.98,13.66,4.46,17.88,4.43,12.33-.07,23.84-5.62,34.54-16.63,15.12-15.57,22.67-32.94,22.67-52.12,0-6.14-1.09-11.47-3.28-15.99-4.72-9.72-13.8-14.58-27.25-14.58-15.01,0-28.17,6.64-39.48,19.91-6.68,7.85-10.03,15.27-10.03,22.27,0,3.52,1.11,6.06,3.33,7.6-2.61,2.24-5.21,3.36-7.8,3.36-2.88,0-5.26-1.29-7.14-3.87-1.89-2.59-2.83-5.85-2.83-9.79,0-8.2,3.89-15.94,11.69-23.21ZM966.24,422.78c0-3.78,1.02-7.98,3.06-12.58-9.56,15.14-18.07,22.72-25.52,22.72-5.46,0-8.19-3.06-8.19-9.17,0-1.24.15-2.52.46-3.84,1.72-6.11,5.88-14.42,12.49-24.95l.93-1.46c1.82-2.74,2.73-4.73,2.73-5.96,0-1.02-.61-1.52-1.84-1.52-1.33,0-3.39.59-6.18,1.79l-.25.11c-13.82,30-28.57,45-44.25,45-9.38,0-14.08-5.12-14.08-15.34,0-12.16,5.24-23.23,15.71-33.23,7.01-6.69,13.48-10.03,19.4-10.03,6.86,0,10.29,3.46,10.29,10.4,0,3.91-1.5,7.92-4.49,12.03-5.09,6.99-11.01,10.49-17.77,10.49-3.99,0-6.67-1.13-8.04-3.38-.51,2.24-.76,4.32-.76,6.26,0,7.07,2.89,10.6,8.68,10.6,10.9,0,21.81-10.9,32.72-32.71-1.76-.55-2.65-2.39-2.65-5.51,0-3.85,1.23-7.69,3.67-11.52,2.45-3.82,4.91-5.73,7.37-5.73,2.09,0,3.13.98,3.13,2.95,0,2.82-2.21,8-6.65,15.54.77-.29,2.27-.93,4.49-1.9,8.44-3.71,13.99-5.57,16.64-5.57,2.01,0,3.01.85,3.01,2.55,0,2.24-1.96,6.24-5.89,12.01-2.81,4.13-5.35,8.37-7.63,12.73-2.27,4.36-3.78,7.91-4.53,10.66-.54,1.96-.81,3.49-.81,4.59,0,1.55.55,2.32,1.63,2.32,2.85,0,6.83-3.31,11.92-9.94,4.78-6.21,9.33-13.75,13.64-22.62,1.8-4.45,3.31-8.42,4.52-11.94h14.02c-4.15,11.19-8.89,22.37-14.23,33.53-1.36,3-2.05,5.59-2.05,7.76,0,2.95,1.23,4.43,3.68,4.43,2.73,0,5.87-3.23,9.43-9.69,3.55-6.46,6.3-13.93,8.25-22.41-1.14-1.7-1.7-3.74-1.7-6.12,0-3.76,1.24-7.61,3.73-11.56.62-.07,1.22-.1,1.8-.1,6.53,0,9.8,3.37,9.8,10.12,0,2.35-.48,4.97-1.44,7.86,1.1.29,2.18.43,3.25.43,3.25,0,6.37-1.31,9.35-3.92l5.07-10.33h13.82l-17.33,38.02c-1.24,2.71-1.86,4.45-1.86,5.21,0,.85.51,1.27,1.51,1.27.84,0,1.9-.43,3.17-1.31,3.26-2.22,7.08-6.45,11.46-12.68l.23-.32c.78-2.49,1.83-5.04,3.14-7.65,3.27-6.54,7.48-12.05,12.63-16.54,7.09-6.17,14.55-9.26,22.4-9.26,6.02,0,9.03,2.63,9.03,7.9,0,3.44-1.32,6.57-3.95,9.37-3.22,3.43-6.32,5.14-9.31,5.14-1.55,0-2.82-.48-3.83-1.42-1-.95-1.5-2.16-1.5-3.62,0-1.58.61-3.1,1.85-4.56.99.18,1.96.27,2.89.27,3.58,0,6.1-1.1,7.59-3.3.55-.82.83-1.66.83-2.51,0-2.21-1.36-3.31-4.06-3.31-4.68,0-9.38,2.71-14.13,8.12-3.01,3.44-5.46,7.4-7.35,11.9-1.89,4.49-2.84,8.6-2.84,12.32,0,6.69,2.91,10.04,8.73,10.04,6.72,0,13.52-4.43,20.4-13.3,2.26-7.86,6.98-15.21,14.15-22.06,7.01-6.69,13.47-10.03,19.39-10.03,6.87,0,10.3,3.46,10.3,10.4,0,3.91-1.5,7.92-4.49,12.03-5.09,6.99-11.01,10.49-17.77,10.49-3.99,0-6.67-1.13-8.04-3.38-.51,2.24-.76,4.32-.76,6.26,0,7.07,2.89,10.6,8.68,10.6,11.1,0,22.21-11.31,33.33-33.93.25-.1.5-.15.74-.15.7,0,1.13.39,1.29,1.17-13.84,30.07-28.6,45.11-44.3,45.11-9.39,0-14.08-5.12-14.08-15.34l.11-2.98c-9.22,12.21-18.78,18.32-28.7,18.32s-14.15-5.09-14.15-15.26l.12-2.65c-8.06,11.94-15.1,17.91-21.12,17.91s-8.6-3.01-8.6-9.01c0-4.12,1.38-8.84,4.13-14.16l8.8-17.94c-3.27,2.3-6.58,3.45-9.92,3.45-.65,0-1.29-.05-1.93-.14l-2.08,3.83c-5.32,9.79-11.46,17.89-18.43,24.32-6.97,6.43-13.07,9.65-18.3,9.65s-7.81-3.38-7.81-10.14Z"/>
      <path class="cls-2" d="M1158.3,430.67c4.94-.12,9.39-.21,11.29-.21h12.9l2.33-11.34-.67-.21c-3.75,6.22-7.49,9.53-10.78,9.53-1.29,0-2.2-.38-2.84-1.2-.82-1.04-1.2-2.85-1.2-5.69,0-11.83,0-8.87.01-20.71l.02-.69c.09-1.46.51-2.16,1.63-2.68v-.73c-2.97.16-4.26.21-5.75.21s-2.78-.05-5.75-.21v.73c.79.36,1.23.84,1.45,1.54.17.54.21,1.05.21,2.6v18.29c0,3.08-.15,4.96-.51,6.42-.43,1.7-1.17,2.85-2.34,3.63v.72Z"/>
      <path class="cls-2" d="M1187.41,430.67c4.94-.12,9.39-.21,11.29-.21h12.9l2.33-11.34-.67-.21c-3.74,6.22-7.48,9.53-10.77,9.53-1.29,0-2.21-.38-2.85-1.2-.81-1.04-1.19-2.85-1.19-5.69v-20.71l.02-.69c.09-1.46.51-2.16,1.63-2.68v-.73c-2.97.16-4.26.21-5.75.21s-2.78-.05-5.75-.21v.73c.79.36,1.23.84,1.45,1.54.17.54.21,1.05.21,2.6v18.29c0,3.08-.15,4.96-.51,6.42-.42,1.7-1.16,2.85-2.34,3.63v.72Z"/>
      <path class="cls-2" d="M1241.8,418.45c-1.2,7.26-3.66,10.77-7.56,10.77-2.22,0-4.25-1.37-5.72-3.87-1.57-2.69-2.41-6.49-2.41-10.94,0-7.61,1.9-13.3,5.16-15.49.92-.62,1.92-.94,2.97-.94,3.96,0,5.95,3.41,7,12.02l.72.16,2.33-10.21c-3.37-2.64-7.2-4.04-11.08-4.04-4.78,0-9.14,2.2-12.05,6.08-2.58,3.44-3.91,7.53-3.91,12s1.53,9.09,4.34,12.55c2.64,3.25,6.27,4.91,10.73,4.91s8.33-1.53,12.02-4.51l-1.81-8.65-.73.16Z"/>
    </g>
  </g>
</svg>