<?xml version="1.0" encoding="UTF-8"?>
<svg xmlns="http://www.w3.org/2000/svg" version="1.1" viewBox="0 0 1583.6 460.1">
  <defs>
    <style>
      .cls-1 {
        fill: #fff;
      }

      .cls-1, .cls-2, .cls-3 {
        fill-rule: evenodd;
      }

      .cls-3 {
        fill: #ccad75;
      }
    </style>
  </defs>
  <!-- Generator: Adobe Illustrator 28.7.1, SVG Export Plug-In . SVG Version: 1.2.0 Build 142)  -->
  <g>
    <g id="Layer_1">
      <path class="cls-2" d="M458.3,123.9c-2.2.3-4.2.5-6,.6l-8.3-68.6c2.4-.4,5.1-.8,8.2-1.2,8.3-1,14.9.4,19.7,4.1,6.1,4.8,10,13.8,11.6,26.9,1.5,12.8-.1,22.3-5,28.6-4.1,5.3-10.9,8.5-20.2,9.6ZM1527.9,215.8c-6.8-12-20.1-23.6-40.1-34.7-12.4-6.9-20.2-12.4-23.4-16.6-3.9-5.1-4.6-12.2-2.2-21.3,2.2-8.5,6.3-14.8,12.2-18.8,5.6-3.8,11.7-4.8,18.5-3.1,21.2,5.6,29,24.9,23.2,58-.3,1.6,0,3,.8,4.4.8,1.4,2,2.3,3.4,2.8l4.3,1.5c1.4.5,2.9.5,4.3,0,1.4-.5,2.5-1.5,3.3-2.8l26.8-46.5c1.7-2.9,1.3-5.6-1.2-7.9-19.7-18.4-40.2-30.3-61.4-35.9-28.5-7.5-51.4-6.2-68.7,3.9-15.4,9-26.1,24.7-31.9,47-5.4,20.4-3.8,37.3,4.6,50.8,3.8,6.1,9.3,11.7,16.5,16.9,3.9,2.8,14,8.8,30.3,18.1,16.4,9.3,22.6,21.8,18.5,37.3-2.7,10.1-7.7,17.6-15,22.3-7.1,4.6-15.1,5.8-23.8,3.5-24.3-6.4-34.2-30.1-29.5-71.2.3-2.9-.8-5.1-3.5-6.4l-4.2-2.1c-1.5-.8-3.1-.9-4.8-.4s-2.9,1.5-3.7,3l-30,53.4c-1.5,2.6-1.2,5,.7,7.3,18,20.9,41.8,35.2,71.3,43,30.5,8,55.1,6.6,73.7-4.2,16.6-9.7,28.1-26.6,34.5-50.8,5.3-20.1,4.1-36.8-3.5-50.4h0ZM1307.6,202.9c-.6-1.5-1.6-2.7-3.1-3.4l-4-2c-3-1.5-5.6-1-7.8,1.6-28.9,33.8-52.6,49.2-71.2,46.1-5.9-1-9.8-3.4-11.9-7.2-3.2-5.9-3.5-16.8-.9-32.6l21.6-129.2.8-4.1c1.3-5.6,4.1-9,8.4-10.2,2.6-.7,4.2-2.4,4.6-5.1l.8-4.5c.3-1.8,0-3.5-1.2-4.9-1.1-1.5-2.6-2.3-4.4-2.5-16-1.8-27.9-3.3-35.7-4.7-7.9-1.3-19.6-3.7-35.3-7.2-1.8-.4-3.5,0-5,.9-1.5,1-2.4,2.5-2.7,4.3l-.8,4.5c-.4,2.7.4,4.8,2.7,6.3,2.8,1.9,4.4,4.2,4.7,6.8.3,2.3-.2,7.1-1.4,14.5l-19.1,114c-2.9,17.6-6.1,30.3-9.4,38-3.6,8.4-8.7,14-15.1,16.9-2.1.9-3.3,2.5-3.7,4.8l-.8,4.5c-.3,1.8,0,3.4,1.1,4.8,1.1,1.4,2.5,2.3,4.2,2.6l70.7,10.5,80.3,13.4c1.5.2,2.9,0,4.2-.8,1.3-.8,2.3-1.8,2.8-3.3l26.4-68.3c.6-1.5.6-3.1,0-4.6h0ZM1376.2,71.6c1.7-7.7.9-14.1-2.3-19-3.1-4.7-8-7.8-14.9-9.3-6.9-1.5-12.8-.7-17.6,2.4-5.1,3.3-8.5,9-10.2,16.9-.3,1.6-.6,4-.7,7l-3,74.7c0,1.6.4,3,1.3,4.2.9,1.2,2.2,2,3.7,2.3l6.4,1.4c1.5.3,3,.1,4.4-.6s2.4-1.8,2.9-3.3l28-69.5c.7-1.8,1.3-4.2,2-7.3h0ZM1021.5,244.4l81.1,7.9c1.5.1,2.9-.2,4.2-1.1,1.3-.8,2.1-2,2.6-3.4l21.6-70c.5-1.6.4-3.1-.3-4.6s-1.8-2.6-3.3-3.2l-4.1-1.7c-3.1-1.3-5.6-.6-7.6,2.1-26.5,35.7-49.1,52.6-67.9,50.8-5.9-.6-10-2.7-12.4-6.3-3.6-5.7-4.6-16.5-3.1-32.5l12.7-130.4.5-4.1c.9-5.7,3.5-9.2,7.7-10.7,2.6-.9,4-2.7,4.2-5.4l.4-4.6c.2-1.8-.3-3.5-1.6-4.8-1.2-1.4-2.7-2.1-4.6-2.2-16.1-.7-28-1.4-36-2.2s-19.8-2.4-35.7-4.8c-1.8-.3-3.5.1-4.9,1.3s-2.3,2.6-2.5,4.4l-.4,4.6c-.3,2.7.8,4.8,3.1,6.1,2.9,1.7,4.7,3.9,5.2,6.4.5,2.2.3,7.1-.4,14.5l-11.2,115.1c-1.7,17.8-4,30.6-6.8,38.6-3,8.6-7.7,14.6-13.9,17.9-2,1.1-3.2,2.8-3.4,5.1l-.4,4.6c-.2,1.8.3,3.4,1.5,4.7,1.2,1.4,2.6,2.1,4.4,2.3l71.2,5.6h0ZM769,205.1c-2.9-4.7-7.3-14.5-13.3-29.4l-8-19.9c-7.2-17.9-18.5-30.4-34-37.4,27.8-10.6,41.2-28.5,40-53.6-1-21.3-10.1-36.2-27.4-44.6-15-7.3-38.5-10.3-70.3-8.8l-23.9,1.1c-21.9,1-39.6,1.5-53.1,1.4-1.8,0-3.4.6-4.7,2-1.3,1.3-1.9,2.9-1.8,4.7l.2,4.6c.1,2.7,1.4,4.6,4,5.6,3.1,1.3,5.2,3.2,6,5.6.8,2.2,1.3,7,1.6,14.4l5,118.5c1,24.4-.7,40.5-5.1,48.4-.5.9-1,1.7-1.6,2.5-2.1-1.5-4.2-3.6-6.2-6.4-3.2-4.4-8.4-13.9-15.5-28.4l-9.4-19.2c-8.5-17.3-20.7-28.9-36.7-34.8,27-12.7,38.9-31.5,35.9-56.5-2.6-21.2-12.8-35.3-30.7-42.5-15.5-6.2-39.1-7.3-70.7-3.5l-23.7,2.9c-21.8,2.6-39.4,4.4-52.8,5.4-1.8.1-3.3.9-4.5,2.3-1.2,1.4-1.6,3-1.4,4.8l.6,4.6c.3,2.7,1.8,4.5,4.4,5.3,3.2,1.1,5.4,2.8,6.4,5.1.9,2.1,1.8,6.8,2.7,14.3l13.9,117.8c2.9,24.3,2.4,40.5-1.5,48.6-1.5,3.2-3.7,6-6.4,8.3-1.8,1.5-2.6,3.4-2.3,5.7l.5,4.5c.2,1.9,1.1,3.3,2.6,4.4,1.5,1.1,3.2,1.5,5,1.1,12.8-2.4,27.1-4.6,43-6.5s30.3-3.2,43.3-3.9c1.9-.1,3.4-.9,4.6-2.3s1.7-3.1,1.5-4.9l-.5-4.6c-.3-2.3-1.5-4-3.6-5-6.9-3.3-12-10.3-15.3-21-2.3-7.2-4.4-18.3-6.2-33.3l-4.2-33.6c8.7-1,16.5,4.1,23.4,15.2,3.6,5.8,7.6,14,12,24.6,2.8,6.8,7.5,18.8,13.9,35.8l7.2,19.1c.5,1.4,1.5,2.5,2.8,3.3,1.3.8,2.7,1,4.2.8,6.2-1,15.4-2.1,27.7-3.5l31.8-3.6c1.1.6,2.4.9,3.8.7,12.9-1.5,27.4-2.6,43.4-3.3s30.5-.9,43.5-.7c1.9,0,3.4-.6,4.7-1.9,1.3-1.3,1.9-2.9,1.8-4.8l-.2-4.6c-.1-2.3-1.2-4.1-3.2-5.3-6.6-3.8-11.2-11.2-13.7-22.1-1.7-7.4-3-18.6-3.7-33.7l-1.7-33.8c8.8-.3,16.2,5.3,22.2,16.9,3.1,6,6.5,14.5,10.1,25.5,2.3,7,6,19.2,11.1,36.8l5.7,19.6c.4,1.5,1.3,2.6,2.5,3.5s2.6,1.2,4.2,1.1c6.2-.5,15.5-1,27.8-1.4l31.7-1.1c1.1.8,2.3,1.2,3.7,1.2l71.4.6,87.6,2.4c3.4,0,5.6-1.5,6.4-4.8l18-71.3c.4-1.6.2-3.2-.6-4.7-.8-1.5-2-2.5-3.7-3l-4.5-1.4c-3-1-5.4-.1-7.2,2.5-25.6,37.5-48.8,56-69.5,55.4-14.1-.4-20.8-13-20.1-37.7l1.2-43.8c1.7,0,3,0,4.1,0,22.7.6,36.5,11,41.5,31.1.8,3.2,2.8,4.8,6.1,4.9h4.6c1.8.2,3.3-.4,4.6-1.6,1.3-1.2,2-2.7,2-4.5l2.2-80.9c0-1.8-.5-3.3-1.8-4.6s-2.7-1.9-4.5-2h-4.6c-3.3-.2-5.4,1.3-6.3,4.4-6,19.8-20.4,29.5-43.1,28.8-1,0-2.4-.1-4.1-.3l2-71.8h2.1c24.7.7,48,16.5,69.9,47.6,1.2,1.8,2.9,2.7,5.1,2.7h4.6c2,.2,3.7-.6,5-2.1,1.3-1.5,1.8-3.3,1.5-5.3l-9.9-57.3c-.3-1.5-1-2.8-2.1-3.8-1.2-1-2.5-1.5-4-1.6l-76.6-2.1c-17-.5-38-1.5-63.3-3-1.8-.1-3.4.4-4.7,1.7-1.3,1.2-2,2.7-2.1,4.6v4.6c-.2,2.7,1,4.7,3.4,5.9,3,1.5,4.9,3.5,5.6,6,.6,2.2.8,7,.6,14.5l-3.2,115.6c-.5,17.9-1.9,30.9-4.1,39-1.5,5.6-3.8,10.2-6.8,13.7-2-1.7-3.9-3.9-5.7-6.9h0ZM676.2,42.8c5.8,5.2,8.9,14.5,9.5,27.6.6,12.9-1.8,22.3-7.1,28.1-4.5,4.9-11.5,7.6-20.9,8-2.2.1-4.2.2-6,.2l-3.1-69c2.4-.2,5.2-.4,8.3-.5,8.4-.4,14.8,1.5,19.3,5.6ZM151.1,314.4c1-1.6,1.2-3.3.8-5l-1.2-4.4c-.6-2.2-2-3.7-4.2-4.5-10-3.2-18.4-15.8-25.2-37.6-1.3-4.4-3.8-13.1-7.3-26.1l-5.6-20.8c1.6-.5,2.9-.9,3.9-1.2,22-5.9,38.2.2,48.6,18.1,1.6,2.8,4.1,3.8,7.2,3l4.4-1.2c1.7-.4,3-1.4,3.9-3s1.1-3.2.6-4.9l-20.8-78.2c-.5-1.7-1.4-3-3-3.9-1.5-.9-3.2-1.1-4.9-.6l-4.4,1.2c-3.1.8-4.7,2.9-4.8,6.1-.1,20.7-11.2,34-33.1,39.9-1,.3-2.3.6-4,.9l-18.5-69.4,2-.5c23.9-6.4,50.7,2.2,80.5,25.7,1.7,1.3,3.6,1.7,5.6,1.2l4.4-1.2c2-.5,3.4-1.7,4.2-3.6.8-1.9.8-3.7,0-5.5l-25.8-52.1c-.7-1.4-1.7-2.4-3.1-3s-2.8-.8-4.3-.4l-74.1,19.8c-16.4,4.4-36.9,9.4-61.5,15.1-1.8.4-3.1,1.4-4.1,2.9-.9,1.6-1.2,3.2-.7,5l1.2,4.4c.7,2.6,2.4,4.2,5.1,4.7,3.3.6,5.7,2,7.1,4.2,1.2,1.9,2.8,6.5,4.7,13.8l30.1,114.4c6.2,23.6,8,39.7,5.3,48.3-1.1,3.4-2.8,6.4-5.2,9.1-1.6,1.7-2.1,3.7-1.5,6l1.2,4.4c.5,1.8,1.5,3.1,3.2,4,1.6.9,3.3,1,5.1.4,12.3-4.2,26.2-8.3,41.7-12.5,15.5-4.1,29.6-7.4,42.3-10,1.8-.4,3.2-1.3,4.2-2.9h0ZM311.6,109.7c-3.2.6-4.9,2.6-5.2,5.8-1.5,20.7-13.4,33.2-35.7,37.6-1,.2-2.3.4-4,.6l-13.8-70.5,2.1-.4c24.3-4.8,50.5,5.6,78.6,31,1.6,1.4,3.4,1.9,5.5,1.5l4.5-.9c2-.4,3.5-1.5,4.4-3.3,1-1.8,1-3.6.3-5.5l-22.2-53.7c-.6-1.4-1.5-2.5-2.9-3.2-1.3-.7-2.8-.9-4.3-.7l-75.2,14.8c-16.6,3.3-37.4,6.9-62.4,10.9-1.8.3-3.2,1.2-4.2,2.7-1,1.5-1.4,3.1-1,4.9l.9,4.5c.5,2.7,2.1,4.3,4.7,5,3.3.8,5.6,2.4,6.8,4.7,1.1,2,2.4,6.7,3.8,14.1l22.2,113.5c3.4,17.5,4.9,30.5,4.5,38.9-.4,9.1-3.2,16.2-8.2,21.1-1.6,1.6-2.2,3.5-1.8,5.8l.9,4.5c.3,1.8,1.3,3.1,2.8,4.1s3.1,1.3,4.9.9l69.8-15,86-16.9c3.4-.7,5.1-2.7,5.2-6.1l2-73.5c0-1.7-.5-3.2-1.6-4.4-1.1-1.3-2.5-2-4.2-2.1l-4.8-.4c-3.2-.3-5.3,1.1-6.5,4-16.7,42.2-35.3,65.3-55.7,69.3-13.8,2.7-23.1-8.1-27.9-32.4l-8.5-43c1.6-.4,3-.8,4-.9,22.3-4.4,38,2.7,47.3,21.3,1.5,2.9,3.8,4.1,7,3.4l4.5-.9c1.7-.3,3.1-1.2,4.1-2.7,1-1.5,1.3-3.1,1-4.8l-15.6-79.4c-.3-1.7-1.2-3.1-2.7-4.1-1.5-1-3.1-1.3-4.8-1l-4.5.9h0ZM315.4,263.2l-3.8-3.8,1.8,2.2c.6.6,1.3,1.2,2,1.6h0ZM468.4,78.7l4,32.9,1.1-1.2c3.8-4.8,5-12.8,3.7-23.8-.4-3-.9-5.8-1.5-8.3-1.6,0-3.4,0-5.3.3,0,0-1.9.2-1.9.2ZM468,63.9l2.5,2.5-1.2-1.3c-.4-.4-.8-.8-1.3-1.1ZM1485.7,162.2c-1,3.7-1.3,7-1.1,9.7l6.4,3.6c10,5.6,18.4,11.3,25.3,17.2l-3.1-3.1c-.8-.8-1.4-1.6-2-2.6-1.6-2.7-2.1-5.6-1.6-8.8,2.4-13.8,2.4-24.8,0-33l-1.2-.3c-4.8-1.3-9.2-.6-13.2,2.1-4.6,3.1-7.8,8.2-9.6,15.1h0ZM117.9,179.5c3.5-2.1,6.3-4.6,8.5-7.4,4.1-5.2,6.1-12.2,6.2-20.8,0-2,.4-3.8,1.3-5.5-8.8-2.2-17.2-2.5-25.2-1.1l9.3,34.8h0ZM881.5,143.3c-.6-.6-1.3-1.2-2-1.8l3.9,3.9-1.8-2.1ZM678.2,61h-5.6c0,0,1.5,33.1,1.5,33.1,4-4.6,5.8-12.3,5.2-23.3-.2-3.6-.5-6.9-1.1-9.8h0ZM300.1,115.1c.2-2.5,1-4.7,2.4-6.6-8.5-2.7-16.8-3.6-24.7-2.7l7,35.7c3.1-1.7,5.6-3.8,7.7-6.1,4.4-5,6.9-11.8,7.6-20.4ZM893.6,166.3c-1.6-1.6-2.8-3.6-3.3-6-.5-2.2-1.2-4.3-2-6.2-4-1.4-8.6-2.3-13.8-2.6l-1,37.6c-.1,5.2,0,9.7.5,13.6,10.7-1.2,22.4-8.2,35-21l-15.4-15.4h0ZM1324,69.3c.1-3.4.4-6.1.8-8.1,2.1-9.7,6.4-16.7,13-21,6.3-4.1,13.7-5.2,22.4-3.3,6.5,1.4,11.7,4,15.5,7.9l17.3,17.3c1.3,1.3,2.4,2.7,3.4,4.2,4.2,6.5,5.3,14.4,3.2,23.9-.7,3.4-1.5,6.2-2.3,8.3l-28,69.5c-1.2,2.9-3.1,5.1-5.9,6.5-2.8,1.5-5.7,1.9-8.7,1.2l-6.4-1.4c-2.5-.5-4.6-1.7-6.3-3.4-.4-.4-.8-.8-1.1-1.3l-17.3-17.3c-1.9-2.5-2.8-5.3-2.7-8.4l3-74.7h0ZM336.7,221.8l-17.3-17.3c-.9-.9-1.7-1.9-2.3-3.1-5.7-2.1-12.6-2.5-20.8-1.2l7.2,36.9c.7,3.8,1.6,7.1,2.5,10.1h.5c10.6-2.2,20.7-10.5,30.5-25l-.4-.4h0ZM973.6,36.3c-.4-.4-.8-.7-1.5-1.1l2.2,2.2-.7-1.1ZM1447.1,285.7c5.9-3.9,10-10.1,12.3-18.6,1.4-5.2,1.4-9.7.2-13.7-15.5-8.8-25.2-14.6-29.2-17.5-3.7-2.6-6.9-5.4-9.8-8.3l-17.3-17.3c-3.3-3.3-6.1-6.8-8.4-10.4-9.4-15.1-11.2-33.7-5.4-55.8,6.3-24.1,18-41,34.9-50.9,18.9-11,43.4-12.5,73.6-4.6,22.3,5.9,43.7,18.3,64.2,37.4l.4.3,17.3,17.3c2,2,3.2,4.4,3.6,7.1.4,3,0,5.7-1.6,8.3l-26.8,46.4c-1.5,2.7-3.7,4.5-6.6,5.6s-5.8,1.1-8.7.1l-4.3-1.5c-.9-.3-1.8-.7-2.6-1.2l6.7,6.7c4.8,4.8,8.6,9.6,11.3,14.6,8.4,15,9.8,33.4,4.1,55.1-6.8,25.9-19.3,44.1-37.4,54.7-20.1,11.7-46.3,13.4-78.6,4.9-27.2-7.2-49.8-19.7-67.7-37.6l-17.3-17.3c-2.4-2.4-4.7-4.9-6.9-7.5-1.8-2-2.8-4.4-3-7.1-.3-2.7.3-5.2,1.6-7.5l30-53.4c1.7-3,4.2-5,7.4-6,3.3-1,6.5-.7,9.5.8l4.2,2.1c1.2.6,2.3,1.4,3.3,2.4l17.3,17.3c.9.9,1.6,1.9,2.2,3,1.3,2.4,1.8,4.9,1.5,7.5-2.2,19.7-1.1,34.9,3.4,45.6,1.3.5,2.7.9,4.1,1.3,6.9,1.8,13.1.9,18.7-2.7h0ZM880.8,90.9c5.4-3.9,9.3-9.9,11.8-18.2.8-2.8,2.4-5,4.8-6.7,1.3-1,2.8-1.6,4.3-2-8-4.8-16.2-7.7-24.5-8.6l-1,38.2c1.7-.8,3.3-1.7,4.7-2.7h0ZM357.4,181.7h0c1-2.7,2.8-4.8,5.2-6.3,2.4-1.5,5-2.1,7.8-1.9l4.8.4c3.1.3,5.8,1.5,7.9,3.6l.5.6,3.7,3.7-12.7-107.4c-.4-3.4-.8-6.2-1.2-8.3l-9-9c-1.9-1.9-3-4.4-3.4-7.5l-.5-4.5c-.5-3.6.5-6.9,2.8-9.7,2.3-2.8,5.3-4.4,9-4.6,13.3-1,30.8-2.8,52.5-5.4l23.7-2.9c32.7-4,57.3-2.7,73.9,3.9,7.5,3,13.8,7,18.9,12.1l17.3,17.3c8.7,8.7,14,20.6,15.8,35.5,1.7,14.2-1.1,26.9-8.4,37.9-4.5,6.7-10.5,12.6-18.2,17.8l11.2,11.2c6.1,6.1,11.3,13.6,15.6,22.4l8.1,16.6c.6-7.4.7-16.6.2-27.7l-5-118.5c-.2-4.3-.4-7.6-.7-9.8l-7.5-7.5c-2.1-2.1-3.2-4.9-3.4-8.4l-.2-4.6c-.2-3.7,1-6.8,3.5-9.5,2.5-2.6,5.6-4,9.3-3.9,13.3,0,30.9-.4,52.8-1.4l23.9-1.1c32.9-1.5,57.4,1.7,73.4,9.5,6,2.9,11.1,6.5,15.4,10.8l17.3,17.3c9.7,9.7,14.9,22.8,15.6,39.3.7,14.3-3.1,26.7-11.2,37.2-5.1,6.6-11.9,12.2-20.4,16.9l7.7,7.6c7.2,7.2,13,16.3,17.4,27.3l6.2,15.6c1-7.1,1.6-16.2,1.9-27.2l3.2-115.6c.1-5.1,0-8.8-.1-11l-6.3-6.3c-2.3-2.3-3.5-5.4-3.3-9.2v-4.6c.2-3.6,1.6-6.7,4.3-9.1s5.8-3.6,9.5-3.3c25.2,1.6,46.2,2.6,63,3l76.6,2.1c3,0,5.7,1.1,8,3.1l.7.7,17.3,17.3c1.9,1.9,3,4.2,3.5,6.8l9.9,57.3c.7,4-.3,7.5-2.9,10.6-2.7,3.1-6,4.5-10,4.4h-4.6c-3.3-.2-6.1-1.3-8.4-3.5l-1.2,44.4,2.2-1c2.7-.9,5.4-1,8.1-.1l4.5,1.4c2,.6,3.8,1.7,5.2,3.1l5.3,5.3,10.2-105c.6-5.8.8-9.8.6-11.9l-5.2-5.2c-2.6-2.6-3.7-5.9-3.3-10l.5-4.6c.4-3.7,2-6.6,4.9-8.9s6.2-3.1,9.8-2.6c15.8,2.4,27.6,4,35.4,4.7,7.8.8,19.7,1.5,35.6,2.2,3.3.1,6.2,1.4,8.4,3.7l.7.8,17.3,17.3c2.4,2.8,3.4,6,3.1,9.7l-.4,4.6c-.5,5.4-3.3,9-8.5,10.8-1.8.6-2.9,2.5-3.5,5.5l-.5,3.9-12.7,130.4c-.5,5.4-.8,10.1-.7,14.2,15.1-2.8,33.5-18.8,55.2-47.9,1.8-2.4,4.1-3.9,6.9-4.7,2.8-.8,5.6-.6,8.3.5l4.1,1.7c1.6.7,3,1.6,4.1,2.7l8.1,8.1,17.7-105.7c1.1-6.5,1.6-10.7,1.4-12.6,0-.4-.3-.9-.8-1.4-.3-.3-.7-.6-1.2-1-.8-.6-1.5-1.2-2.2-1.8-2.9-2.9-3.9-6.5-3.2-10.9l.8-4.5c.6-3.6,2.4-6.5,5.5-8.5,3.1-2,6.4-2.7,10-1.9,15.6,3.5,27.2,5.9,35,7.1,7.7,1.3,19.5,2.8,35.4,4.6,3,.3,5.5,1.5,7.5,3.5.4.5.9.9,1.3,1.5l17.3,17.3c2.2,2.9,3,6.2,2.4,9.9l-.8,4.5c-.9,5.4-4,8.8-9.2,10.2-1.8.5-3.1,2.3-3.8,5.2l-.8,3.8-21.6,129.2c-1,5.8-1.5,10.8-1.7,15.1,15.1-2.4,34.2-17,57.1-43.9,1.9-2.2,4.3-3.6,7.2-4.2,2.9-.6,5.7-.2,8.3,1.1l4,2c1.3.6,2.4,1.4,3.4,2.4l17.3,17.3c1.2,1.2,2.2,2.7,2.8,4.4,1.2,3.1,1.2,6.2,0,9.2l-26.4,68.3c-1.1,2.8-3,5-5.6,6.5-2.6,1.5-5.5,2-8.5,1.5l-80.2-13.4-70.7-10.5c-2.8-.4-5.2-1.6-7.1-3.5-.5-.5-1-1-1.4-1.6l-1.8-1.9-1.7,1.3c-2.5,1.7-5.3,2.4-8.3,2.1l-80.9-7.9-71.2-5.6c-3.2-.2-5.8-1.5-8-3.6l-.8-.9-.9-1.2-1.1.9c-2.4,1.8-5.1,2.7-8.1,2.6l-87.5-2.4-71.4-.6c-1.9,0-3.7-.4-5.3-1.1l-29.9,1.1c-12.2.4-21.4.9-27.6,1.4-3,.2-5.8-.5-8.3-2.2-.7-.5-1.3-1-1.9-1.6l-17.3-17.3c-1.5-1.5-2.5-3.3-3.2-5.4l-5.7-19.6c-5.1-17.5-8.8-29.7-11.1-36.6l-1.3-3.9.5,10.3c.7,14.7,1.9,25.6,3.6,32.6.9,4,2.2,7.5,3.7,10.3l9.9,9.9c2.2,2.2,3.3,4.9,3.5,8.3l.2,4.6c.2,3.7-1,6.9-3.6,9.5s-5.7,3.9-9.5,3.9c-12.8-.3-27.2,0-43,.7-15.9.7-30.2,1.8-42.9,3.2-1.9.2-3.8,0-5.5-.5l-30.1,3.4c-12.2,1.4-21.3,2.5-27.4,3.5-3,.5-5.8,0-8.5-1.6-1-.6-1.9-1.3-2.7-2l-17.3-17.3c-1.2-1.3-2.2-2.8-2.9-4.5l-7.2-19.1c-6.4-17-11-28.9-13.9-35.6l-3.5-8.3,2,16.1c1.9,14.6,3.9,25.4,6,32.2.8,2.4,1.6,4.6,2.5,6.5l13.2,13.2c1.9,1.9,3.1,4.4,3.4,7.4l.5,4.5c.5,3.7-.5,7-2.9,9.8-2.4,2.9-5.4,4.4-9.1,4.6-12.8.7-27.1,2-42.9,3.9s-30,4.1-42.6,6.5c-3.6.7-7,0-10-2.2l-1.2-1-1,1.3c-1.9,2.3-4.4,3.7-7.3,4.3l-85.9,16.9-69.8,15c-3.5.8-6.8.1-9.8-1.8-.8-.5-1.5-1.1-2.1-1.7l-17.3-17.3c-1.8-1.8-2.9-3.9-3.4-6.5l-.9-4.5c-.9-4.5.3-8.4,3.6-11.6,3.8-3.8,5.9-9.4,6.3-16.8.4-7.9-1.1-20.4-4.4-37.4l-10.6-53.9c-.8.4-1.7.7-2.6,1l-4.4,1.2c-3.2.9-6.2.6-9-.9l18.9,70.7c.9,3.4.5,6.7-1.3,9.7-1.8,3.1-4.4,5.1-7.8,6l-4.4,1.2c-2.8.7-5.5.6-8.2-.5-1.6-.7-3-1.6-4.2-2.7l-17.5-17.6h-.2c-6.3-2.7-14.1-2.9-23.4-.8l4,14.8c3.5,13,5.9,21.6,7.2,25.8,2.1,6.8,4.4,12.6,6.7,17.4.9.5,1.6,1.1,2.3,1.8l17.3,17.3c1.5,1.5,2.6,3.5,3.2,5.8l1.2,4.4c.9,3.6.4,7-1.5,10.1-2,3.1-4.8,5.1-8.4,5.8-12.6,2.5-26.6,5.8-41.9,9.9s-29.1,8.2-41.3,12.3c-3.5,1.2-6.9.9-10.2-.8-1.2-.6-2.2-1.4-3.1-2.3l-17.3-17.3c-1.5-1.5-2.6-3.4-3.2-5.7l-1.2-4.4c-1.2-4.5-.2-8.5,2.9-12,1.8-1.9,3-4.2,3.8-6.6,2.3-7.4.5-22.4-5.4-44.8l-31.3-118.6-12.4-12.4c-1.5-1.5-2.6-3.5-3.3-6l-1.2-4.4c-.9-3.5-.5-6.8,1.4-9.9,1.9-3.1,4.6-5.1,8.1-5.9,24.5-5.7,45-10.7,61.3-15l74.1-19.7c2.9-.8,5.8-.6,8.6.7,1.4.7,2.7,1.5,3.8,2.6l17.3,17.3c1,1,1.8,2.1,2.4,3.4l10.9,22-3.8-18.7-10.6-10.6c-1.7-1.7-2.8-3.9-3.4-6.7l-.9-4.5c-.7-3.6,0-6.8,2.1-9.8,2.1-3,4.9-4.8,8.5-5.3,24.9-4,45.6-7.6,62.2-10.9l75.2-14.8c3-.6,5.8-.2,8.5,1.3,1.1.6,2.2,1.4,3,2.2l17.3,17.3c1.2,1.2,2.1,2.6,2.7,4.2l22.2,53.7c1.5,3.7,1.4,7.4-.5,11-1.9,3.6-4.9,5.7-8.8,6.5l-4.5.9c-3.3.6-6.2.2-8.9-1.4l8.7,44.2h0Z"/>
      <path class="cls-1" d="M961.9,204.2c2.8-7.9,5.1-20.8,6.8-38.5l11.2-115.1c.7-7.4.9-12.2.4-14.5-.6-3-2.9-5.4-6.7-7.2-1.3-.8-1.9-1.9-1.8-3.5l.9-9.4c.3-2.8,1.8-3.9,4.5-3.5,16.8,2.6,29.7,4.3,38.5,5.2,8.9.9,21.8,1.6,38.8,2.3,2.8.1,4.1,1.6,3.8,4.3l-.9,9.4c-.2,1.5-.9,2.6-2.4,3.1-5.2,1.2-8.3,5-9.3,11.1l-.5,4.1-12.7,130.4c-1.6,15.9-.5,26.7,3,32.3,2.3,3.6,6.3,5.6,12.2,6.2,5.4.5,11.2-.6,17.4-3.3,15.6-6.9,32.8-23.3,51.6-49.2,1.2-1.6,2.6-2,4.4-1.2l8.6,3.6c2.2.9,2.9,2.5,2.2,4.7l-23.1,74.7c-.6,2-1.9,2.8-4,2.6l-83.4-8.1-74-5.8c-2.7-.2-3.9-1.6-3.6-4.3l.9-9c.1-1.3.8-2.2,1.9-2.8,7-3.2,12-9.4,15.2-18.5h0ZM648.9,38l3.1,68.5c1.7,0,3.6,0,5.8-.2,9.3-.4,16.2-3.1,20.7-8,5.3-5.8,7.6-15.1,7-27.9-.6-13.1-3.7-22.3-9.4-27.5-4.5-4.1-10.8-5.9-19.1-5.5-3,.1-5.7.3-8,.5ZM483.2,85.8c-1.6-13-5.4-21.9-11.5-26.7-4.8-3.7-11.2-5.1-19.5-4.1-3,.4-5.6.7-8,1.1l8.3,68.1c1.7-.1,3.6-.3,5.7-.6,9.3-1.1,16-4.3,20-9.5,4.8-6.2,6.5-15.6,4.9-28.4h0ZM1345.5,150.7c-.8,2-2.2,2.7-4.3,2.3l-11.2-2.4c-2.1-.4-3.1-1.7-3-3.9l3.1-77.2c.1-3,.4-5.4.7-7,1.7-8.1,5.2-13.8,10.4-17.1,4.8-3.1,10.8-4,17.8-2.5,6.9,1.5,11.9,4.6,15.1,9.4,3.3,5,4.1,11.5,2.4,19.3-.7,3.1-1.3,5.6-2,7.3l-28.9,71.7h0ZM575.9,241.4l-29.4,3.3c-13.1,1.5-23.1,2.8-30,3.9-2,.3-3.4-.5-4.1-2.4l-8-21.3c-6.4-17.1-11.1-29.1-13.9-35.8-4.4-10.7-8.4-18.9-12-24.6-6.7-10.9-14.4-15.9-22.9-15.1l4.2,33.3c1.9,15,4,26.1,6.2,33.3,3.5,11.2,9.1,18.3,16.7,21.6,1.2.6,1.8,1.5,2,2.8l1.1,9.1c.3,2.8-.9,4.3-3.7,4.4-13.9.7-29.3,2.1-46.2,4.1-16.9,2-32.1,4.4-45.8,7-2.8.5-4.3-.6-4.7-3.4l-1.1-9.1c-.2-1.3.3-2.4,1.3-3.2,3.4-2.5,5.9-5.6,7.7-9.3,3.8-8.1,4.3-24.2,1.4-48.5l-13.9-117.8c-.9-7.4-1.8-12.1-2.7-14.2-1.3-2.8-4-4.7-8.1-5.6-1.5-.5-2.3-1.5-2.5-3l-1.1-9.3c-.3-2.8.9-4.2,3.6-4.4,14.4-1,32.9-2.9,55.7-5.6l23.7-2.9c31.7-3.8,55.3-2.7,70.9,3.5,18,7.2,28.3,21.4,30.9,42.7,1.5,12.7-.9,24-7.4,33.8-6,9-15.3,16.6-28.1,22.7,15.8,6,27.8,17.6,36.3,34.7l9.4,19.2c7.1,14.4,12.3,23.9,15.5,28.3,1.9,2.7,3.9,4.7,5.9,6.2.5-.7,1-1.5,1.5-2.3,4.4-7.8,6.1-23.9,5.1-48.2l-5-118.5c-.3-7.5-.9-12.2-1.6-14.4-1-2.9-3.6-5-7.7-6.2-1.4-.6-2.2-1.6-2.2-3.2l-.4-9.4c-.1-2.8,1.2-4.1,4-4.1,14.4,0,33-.4,55.9-1.4l23.9-1.1c31.9-1.4,55.3,1.5,70.4,8.8,17.4,8.5,26.6,23.4,27.6,44.9.6,12.8-2.7,23.8-10,33.1-6.7,8.5-16.5,15.4-29.7,20.5,15.3,7.2,26.5,19.6,33.6,37.4l8,19.9c6,14.9,10.4,24.7,13.3,29.4,1.7,2.8,3.5,5,5.4,6.6,2.8-3.5,5-7.9,6.5-13.4,2.2-8.1,3.6-21.1,4.1-38.9l3.2-115.6c.2-7.5,0-12.3-.6-14.5-.8-3-3.2-5.2-7.2-6.7-1.4-.7-2-1.8-2-3.3l.3-9.4c0-2.7,1.5-4,4.2-3.8,26.2,1.7,48.2,2.7,66.1,3.2l79,2.2c2.1,0,3.3,1.1,3.6,3.1l10.8,62.8c.6,3.3-.8,4.9-4.2,4.8l-9.3-.3c-1.2,0-2.1-.5-2.8-1.5-22-31.8-45.5-48-70.6-48.7h-1.8s-2,71.2-2,71.2c1.6.1,2.8.2,3.8.2,12,.3,21.6-2.1,28.7-7.2,7.1-5.1,12-13,14.8-23.6.5-1.8,1.8-2.7,3.7-2.6l9.6.3c2.6,0,3.9,1.4,3.8,4l-2.4,86.4c0,2.6-1.4,3.9-4,3.8l-9.6-.3c-1.9,0-3.1-1-3.5-2.8-2.2-10.8-6.7-18.9-13.5-24.3-6.8-5.5-16.3-8.5-28.3-8.8-1,0-2.2,0-3.8,0l-1.2,43.6c-.4,15.9,2.1,26.8,7.5,32.5,3,3.1,7.1,4.8,12.3,4.9,21.2.6,44.7-18.5,70.5-57.1,1-1.5,2.4-2,4.2-1.5l9.2,2.9c2.3.7,3.2,2.3,2.6,4.6l-19.2,76.1c-.5,1.9-1.7,2.9-3.8,2.8l-90-2.5-74.2-.7c-1.4,0-2.4-.4-3-1.1l-29.6,1.1c-13.2.5-23.2,1-30.2,1.6-2,.2-3.3-.7-3.9-2.7l-6.4-21.9c-5.1-17.5-8.8-29.8-11.1-36.8-3.6-11-7-19.4-10.1-25.4-5.9-11.3-13.1-16.9-21.7-16.8l1.7,33.6c.8,15.1,2,26.3,3.7,33.7,2.7,11.4,7.7,19,15,22.8,1.1.6,1.7,1.6,1.8,2.9l.4,9.2c.1,2.8-1.2,4.2-4,4.1-13.9-.4-29.4-.1-46.4.6-17,.8-32.4,2-46.2,3.6-1.5.2-2.5,0-3.3-.8h0ZM178.5,74.1c25.9-4.1,47.6-7.9,65.2-11.4l77.6-15.2c2-.4,3.4.4,4.2,2.3l24.3,58.9c1.3,3.1.3,4.9-3,5.6l-9.2,1.8c-1.2.2-2.2,0-3-.9-28.4-26.2-54.9-36.8-79.6-32l-1.8.4,13.7,70c1.6-.2,2.8-.4,3.8-.6,11.8-2.3,20.6-6.8,26.4-13.3,5.8-6.5,8.9-15.3,9.3-26.2.1-1.9,1.1-3,3-3.4l9.4-1.8c2.6-.5,4.1.5,4.6,3.1l16.6,84.8c.5,2.6-.5,4.1-3.1,4.6l-9.4,1.9c-1.9.4-3.2-.3-4.1-2-4.5-10-10.6-16.9-18.5-20.8-7.9-3.9-17.7-4.7-29.5-2.4-.9.2-2.2.5-3.7.9l8.4,42.8c3.1,15.6,7.9,25.7,14.4,30.1,3.6,2.4,7.9,3.1,13.1,2.1,20.8-4.1,39.6-27.8,56.3-71.2.7-1.7,1.9-2.5,3.7-2.3l9.6.8c2.4.2,3.6,1.5,3.5,4l-2.1,78.5c0,2-1.1,3.2-3,3.6l-88.3,17.3-72.6,15.6c-2.6.6-4.2-.5-4.7-3.1l-1.8-8.9c-.2-1.2,0-2.3,1-3.2,5.7-5.1,8.8-12.5,9.3-22.1.4-8.4-1.1-21.4-4.5-38.9l-22.2-113.5c-1.4-7.3-2.7-12-3.8-14-1.5-2.7-4.3-4.4-8.5-5-1.5-.4-2.4-1.3-2.7-2.8l-1.8-9.2c-.5-2.7.6-4.2,3.2-4.7h0ZM152.9,312.1c.7,2.7-.3,4.4-3.1,4.9-13.7,2.6-28.8,6.1-45.2,10.5-16.4,4.4-31.2,8.8-44.4,13.4-2.7.9-4.4,0-5.1-2.7l-2.4-8.9c-.3-1.3,0-2.4.8-3.3,3-2.9,5.1-6.3,6.3-10.2,2.7-8.6.9-24.6-5.3-48.2l-30.1-114.4c-1.9-7.2-3.5-11.8-4.6-13.7-1.6-2.6-4.6-4.1-8.8-4.4-1.5-.3-2.5-1.1-2.9-2.6l-2.4-9.1c-.7-2.6.3-4.3,2.9-4.9,25.6-5.8,47-11.1,64.3-15.7l76.4-20.4c2-.5,3.4.1,4.4,2l28.2,57.1c1.5,3,.6,4.9-2.6,5.8l-9,2.4c-1.1.3-2.2,0-3.1-.6-30.1-24.2-57.3-33.1-81.5-26.6l-1.8.5,18.4,68.9c1.5-.3,2.8-.6,3.7-.8,11.6-3.1,20.1-8.1,25.5-15.1,5.3-6.9,7.8-15.8,7.5-26.8,0-1.9.9-3.1,2.8-3.6l9.3-2.5c2.5-.7,4.1.2,4.8,2.8l22.3,83.5c.7,2.5-.2,4.1-2.8,4.8l-9.3,2.5c-1.8.5-3.2,0-4.2-1.7-5.1-9.7-11.8-16.2-19.8-19.5-8.1-3.4-18-3.5-29.6-.4-.9.2-2.1.6-3.6,1.1l5.5,20.6c3.5,13,5.9,21.7,7.3,26.1,7,22.4,15.9,35,26.7,38,1.2.4,2,1.2,2.4,2.5l2.4,8.9h0ZM1405.5,279.8c4.9,7.2,12.1,12,21.3,14.5,8.7,2.3,16.5,1.1,23.6-3.5,7.3-4.7,12.2-12.1,14.9-22.2,1.9-7.3,1.7-13.7-.7-19.4-2.8-6.6-8.7-12.5-17.6-17.6-16.3-9.2-26.4-15.3-30.3-18.1-7.2-5.2-12.8-10.9-16.6-17-8.5-13.6-10-30.6-4.7-51,5.9-22.4,16.6-38.1,32.1-47.2,17.4-10.2,40.4-11.5,68.9-3.9,22,5.8,43.1,18.3,63.3,37.6,1.4,1.4,1.7,2.9.7,4.6l-29.2,50.6c-1,1.8-2.5,2.4-4.5,1.7l-9-3.1c-2.1-.7-2.9-2.1-2.5-4.3,4.2-21.1,3-36.9-3.7-47.2-4-6.3-10.3-10.6-18.9-12.8-6.7-1.8-12.7-.7-18.2,3-5.8,4-9.8,10.2-12.1,18.7-2.4,9-1.6,16,2.2,21,3.2,4.1,11,9.7,23.3,16.5,20,11.1,33.4,22.7,40.2,34.8,7.6,13.6,8.8,30.4,3.5,50.6-6.4,24.3-17.9,41.3-34.6,51-18.7,10.9-43.3,12.3-73.9,4.2-30.3-8-54.6-22.9-72.9-44.7-1.1-1.3-1.2-2.7-.4-4.2l32.3-57.6c1.2-2.2,2.9-2.7,5.1-1.6l8.4,4.3c1.5.8,2.2,2,2,3.7-3.4,26.5-.8,46,7.8,58.5h0ZM1137.1,222.2c3.3-7.7,6.5-20.4,9.4-38l19.1-114c1.2-7.4,1.7-12.2,1.4-14.4-.4-3.1-2.5-5.6-6.2-7.7-1.3-.9-1.8-2.1-1.5-3.6l1.6-9.3c.5-2.8,2.1-3.8,4.8-3.2,16.6,3.8,29.3,6.4,38.1,7.8,8.8,1.5,21.6,3.1,38.6,5,2.8.3,3.9,1.8,3.5,4.6l-1.6,9.3c-.3,1.5-1.1,2.5-2.6,2.9-5.3.9-8.7,4.4-10.1,10.5l-.8,4-21.6,129.2c-2.6,15.8-2.4,26.6.8,32.4,2,3.7,5.9,6.1,11.7,7,5.4.9,11.2.2,17.6-2.1,16-5.8,34.3-21,54.9-45.6,1.2-1.5,2.8-1.8,4.5-.9l8.4,4.2c2.1,1,2.7,2.6,1.9,4.8l-28.2,72.9c-.7,1.9-2.1,2.7-4.1,2.4l-82.7-13.8-73.4-10.9c-2.6-.4-3.8-1.9-3.3-4.5l1.5-8.9c.2-1.3.9-2.1,2.1-2.7,7.2-2.8,12.6-8.6,16.5-17.4h0Z"/>
      <path class="cls-3" d="M950.8,232.4l.5-4.6c7.7-4.1,13.3-11.2,16.9-21.4,3-8.4,5.4-21.8,7.2-40.1l11.2-115.1c.8-8.1.9-13.6.3-16.5-.9-4.4-3.6-7.9-8.2-10.6l.4-4.6c16,2.4,28,4,36.1,4.8s20.1,1.5,36.3,2.2l-.4,4.6c-6.6,2.4-10.6,7.7-11.9,15.9l-.6,4.3-12.7,130.4c-1.7,17.4-.3,29.6,4.1,36.5,3.4,5.4,9.2,8.5,17.1,9.3,21.2,2.1,45.7-15.7,73.7-53.4l4.1,1.7-21.6,70-81.2-7.9-71.2-5.6h0ZM459.1,130.3c23.9-2.9,34.1-18,30.8-45.3-3.3-27.1-16.1-39.3-38.4-36.6-6.1.7-10.9,1.5-14.5,2.4l9.8,80.3c3.1,0,7.2-.2,12.4-.9h0ZM641.9,32.1l3.7,80.8c3.1.3,7.2.3,12.5,0,24-1.1,35.4-15.4,34.1-42.9-1.2-27.3-13.1-40.4-35.6-39.4-6.1.3-11,.7-14.7,1.3ZM1336.8,69.8c0-2.7.3-4.6.6-5.9,2.6-12,9.3-16.8,20.2-14.4,10.7,2.3,14.8,9.2,12.3,20.7-.6,2.8-1.2,4.9-1.7,6.3l-28,69.4-6.4-1.4,3-74.7h0ZM1553.4,135.4l-26.8,46.5-4.4-1.5c6.5-36.9-2.8-58.7-27.8-65.3-8.6-2.3-16.6-.9-23.7,4-7.2,4.9-12.1,12.4-14.7,22.5-2.9,11.1-1.8,20,3.4,26.8,3.7,4.9,12.2,11,25.4,18.3,18.9,10.5,31.5,21.2,37.6,32.2,6.8,12,7.7,27.2,2.8,45.6-12.6,47.9-46.1,64.8-100.3,50.5-28.3-7.5-51-21.1-68.1-41l30-53.4,4.2,2.1c-5.1,44.7,6.4,70.8,34.3,78.1,10.6,2.8,20.2,1.4,28.9-4.3s14.6-14.4,17.7-26.1c4.9-18.7-2.2-33.6-21.5-44.5-16.1-9.1-26-15-29.7-17.7-6.5-4.7-11.5-9.7-14.8-15.1-7.5-11.9-8.7-27.2-3.8-45.8,11.6-44.1,42.6-59.6,92.8-46.3,20.2,5.3,39.7,16.8,58.7,34.4h0ZM844.8,121.6l-1.4,49.8c-.8,29,8,43.8,26.3,44.3,23.1.6,48.1-18.8,75-58.2l4.5,1.4-18,71.3-87.8-2.4-71.4-.6v-1.3s-35.7,1.3-35.7,1.3c-12.4.4-21.8.9-28.1,1.4l-5.7-19.6c-5.2-17.6-8.9-29.9-11.2-37-3.7-11.3-7.2-20.1-10.5-26.4-7.3-14.1-16.8-20.9-28.4-20.3-1.1,0-3.2.4-6.2.9l2,39.6c.8,15.5,2.1,27.1,3.9,34.8,3,12.7,8.5,21.4,16.7,26.2l.2,4.6c-13.1-.3-27.8,0-43.9.7-16.1.7-30.7,1.8-43.8,3.3v-1.1s-35.6,4-35.6,4c-12.4,1.4-21.7,2.6-28,3.5l-7.2-19.1c-6.5-17.2-11.1-29.2-14-36.1-4.6-11-8.7-19.5-12.5-25.6-8.4-13.5-18.3-19.6-29.9-18.1-1.1.1-3.1.6-6.1,1.4l5,39.4c2,15.4,4.1,26.9,6.5,34.4,3.9,12.4,10.1,20.7,18.6,24.8l.5,4.6c-13.1.7-27.7,2.1-43.7,4-16,1.9-30.5,4.1-43.4,6.6l-.5-4.6c3.5-2.9,6.2-6.4,8.1-10.5,4.4-9.3,5-26.6,2-52.1l-13.9-117.8c-1-8.1-2-13.5-3.2-16.2-1.8-4.1-5.3-7-10.3-8.6l-.6-4.5c13.5-1,31.2-2.8,53.1-5.5l23.7-2.9c30.5-3.7,53.1-2.7,67.6,3.1,15.5,6.2,24.5,18.6,26.7,37.3,3.3,27.4-14.5,46.6-53.4,57.6,25.4,1.1,43.6,13,54.8,35.7l9.4,19.2c7.3,14.8,12.6,24.6,16.1,29.3,3.9,5.4,8.2,8.9,12.8,10.6,2.3-2.1,4.2-4.6,5.8-7.3,5-8.9,7-26.2,5.9-51.8l-5-118.5c-.3-8.1-1-13.6-2-16.3-1.5-4.2-4.7-7.3-9.6-9.4l-.2-4.6c13.5,0,31.3-.4,53.4-1.5l23.9-1.1c30.7-1.4,53.1,1.3,67.2,8.2,15,7.3,23,20.4,23.8,39.2,1.3,27.5-17.9,45.4-57.6,53.4,25.2,3,42.5,16.2,52,39.7l8,19.9c6.1,15.3,10.7,25.4,13.8,30.4,3.5,5.7,7.5,9.6,12,11.6,5.6-4.6,9.6-11.3,12-20.1,2.4-8.6,3.8-22.1,4.3-40.5l3.2-115.6c.2-8.1,0-13.6-.9-16.5-1.2-4.3-4.2-7.7-8.9-10v-4.6c25.4,1.6,46.6,2.6,63.6,3.1l76.6,2.1,9.9,57.3h-4.6c-23.1-32.9-48.1-49.6-75-50.3-3.7-.1-6.5,0-8.5,0l-2.3,83.8c4.8.6,8.3.9,10.5.9,26,.7,42.4-10.4,49.4-33.4h4.6c0,.1-2.2,81-2.2,81h-4.6c-5.7-23.4-21.5-35.4-47.5-36.1-2.2,0-5.7,0-10.5.4h0ZM60.9,333.6l-1.2-4.4c3-3.3,5.2-7.2,6.6-11.5,3-9.8,1.3-27.1-5.2-51.9l-30.1-114.4c-2.1-7.9-3.9-13-5.5-15.5-2.4-3.8-6.2-6.2-11.4-7.1l-1.2-4.4c24.7-5.7,45.3-10.7,61.7-15.1l74.1-19.8,25.8,52.1-4.4,1.2c-31.5-24.8-60.2-33.8-86.2-26.9-3.6.9-6.3,1.8-8.1,2.5l21.6,81c4.8-.8,8.2-1.5,10.3-2.1,25.1-6.7,37.7-22,37.9-46l4.4-1.2,20.9,78.2-4.4,1.2c-12.1-20.7-30.7-27.8-55.8-21.1-2.1.6-5.4,1.7-10,3.3l7.1,26.6c3.5,13.1,6,21.9,7.3,26.3,7.5,24,17.3,37.9,29.4,41.8l1.2,4.4c-12.9,2.5-27.1,5.9-42.8,10s-29.6,8.4-42.1,12.6ZM198.6,108.4c-1.6-8-3.1-13.3-4.4-15.9-2.1-3.9-5.8-6.6-10.9-7.8l-.9-4.5c25-4,45.9-7.7,62.6-10.9l75.2-14.8,22.2,53.7-4.5.9c-29.7-26.9-57.8-37.7-84.2-32.6-3.6.7-6.4,1.4-8.3,2l16.1,82.3c4.8-.5,8.3-.9,10.4-1.4,25.5-5,39.1-19.5,40.9-43.4l4.5-.9,15.6,79.4-4.5.9c-10.7-21.5-28.8-29.7-54.2-24.7-2.1.4-5.5,1.3-10.2,2.7l9.6,48.9c5.6,28.5,17.4,41,35.4,37.4,22.7-4.4,42.8-28.9,60.4-73.3l4.8.4-2,73.5-86.1,16.9-69.8,15-.9-4.5c6.2-6.1,9.6-14.5,10.1-25.3.4-8.9-1.1-22.4-4.6-40.5l-22.2-113.5h0ZM1275.2,273.5l-80.4-13.4-70.6-10.5.8-4.5c7.9-3.5,14.1-10.2,18.4-20.2,3.6-8.2,6.9-21.4,9.9-39.5l19.1-114c1.3-8,1.8-13.5,1.4-16.4-.6-4.4-3.1-8.2-7.4-11.2l.8-4.5c15.8,3.5,27.7,6,35.6,7.3s20,2.9,36.1,4.7l-.8,4.5c-6.8,1.9-11.1,6.9-13,15.1l-.8,4.2-21.6,129.2c-2.9,17.3-2.4,29.5,1.5,36.7,3.1,5.6,8.6,9.1,16.5,10.4,20.9,3.5,46.7-12.6,77.1-48.2l4,2-26.4,68.3h0Z"/>
      <g>
        <polygon class="cls-1" points="254.2 397.4 246.3 422.7 268.2 407.7 289.9 423.1 282.4 397.6 303.7 381.8 277.1 381 268.6 355.8 259.7 380.8 233.1 381.1 254.2 397.4"/>
        <polygon class="cls-1" points="175.4 394.2 170.7 409.6 183.9 400.5 197 409.8 192.5 394.4 205.4 384.8 189.3 384.3 184.2 369.1 178.8 384.2 162.7 384.4 175.4 394.2"/>
        <polygon class="cls-1" points="1329.4 397.4 1337.3 422.7 1315.4 407.7 1293.8 423.1 1301.2 397.6 1279.9 381.8 1306.5 381 1315 355.8 1323.9 380.8 1350.5 381.1 1329.4 397.4"/>
        <polygon class="cls-1" points="1408.2 394.2 1412.9 409.6 1399.7 400.5 1386.6 409.8 1391.1 394.4 1378.2 384.8 1394.3 384.3 1399.4 369.1 1404.8 384.2 1420.9 384.4 1408.2 394.2"/>
        <path class="cls-1" d="M861.3,353.5c6.8-1.3,12.4-3.5,16.8-6.4,5.7-3.8,8.6-8.3,8.6-13.4s-.9-5.1-2.8-6.9c-1.9-1.8-4.2-2.7-7.1-2.7s-.7,0-1,0c-10.9.9-16.3,7.1-16.3,18.7s.6,7,1.9,10.6h0ZM1100.2,400.4c1.5,1.6,3.1,2.4,4.8,2.4,3.3,0,6.6-2.9,10.1-8.7,2.8-4.7,4.2-8.8,4.2-12.2s-.7-3.5-2.2-3.5c-2.4,0-5.9,3.2-10.5,9.6-2.7,3.7-4.8,7.9-6.3,12.4h0ZM1044.2,369.7c-2.5,0-4.7-.9-6.5-2.7-1.8-1.8-2.7-3.9-2.7-6.5s.9-4.7,2.7-6.5c1.8-1.8,3.9-2.7,6.5-2.7s4.7.9,6.5,2.7,2.7,3.9,2.7,6.5-.9,4.7-2.7,6.5c-1.8,1.8-3.9,2.7-6.5,2.7ZM512.8,392.3c-4,7.9-7.8,14.6-11.3,20.1-.2.9-.4,1.7-.4,2.6,0,2,.6,3.6,1.9,4.9,1.3,1.3,2.9,2,4.9,2s4.2-.9,5.4-2.5c1-1.4,1.5-3.5,1.5-6.2s-.3-4.9-.9-9.8c-.6-4.9-1-8.6-1.1-11.1h0ZM351.6,421.9c-1.9.8-2.8,1.8-2.8,2.9,0,1.7,1.9,2.6,5.7,2.6s7.1-2,11.2-6.1c-2.2-.4-4.7-.6-7.3-.6s-4.9.4-6.8,1.2h0ZM906.5,402.8c3.3,0,6.6-2.9,10.1-8.7,2.8-4.7,4.2-8.8,4.2-12.2s-.7-3.5-2.2-3.5c-2.4,0-5.9,3.2-10.5,9.6-2.7,3.7-4.8,7.9-6.3,12.4,1.5,1.6,3.1,2.4,4.8,2.4h0ZM550.2,419.5c0,2.6,1.3,3.9,4,3.9s2.4-.4,3.6-1.3c3.4-2.3,7.1-8,11.1-17.2,3.7-8.5,5.5-14,5.5-16.7s-.9-2.8-2.7-2.8c-5.1,0-10.4,6.2-15.8,18.5l-3.7,8.3c-1.3,3-2,5.5-2,7.3h0ZM685.7,421.3c4,0,9.9-7.1,17.7-21.3,4.6-8.4,6.9-14.4,6.9-17.8s-.8-2.9-2.4-2.9-2.1.4-3.3,1.1c-3.7,2.3-9,9.7-15.9,22.3-3.9,7.1-5.8,12.2-5.8,15.4s.9,3.3,2.8,3.3h0ZM496,354.1c1.8-1.8,3.9-2.7,6.5-2.7s4.7.9,6.5,2.7c1.8,1.8,2.7,3.9,2.7,6.5s-.9,4.7-2.7,6.5c-1.8,1.8-3.9,2.7-6.5,2.7s-4.7-.9-6.5-2.7c-1.8-1.8-2.7-3.9-2.7-6.5s.9-4.7,2.7-6.5ZM623.5,377.9c-4.6,0-9.9,7.3-16,21.8-2.7,6.5-4.1,12-4.1,16.4s1.4,7,4.2,7c4.3,0,9.3-7.2,14.8-21.6,2.7-7.1,4.1-12.8,4.1-17.2s-1-6.3-3-6.3h0ZM869.9,370.2c3.6,5,6,8.8,7.4,11.5,2.9,5.6,4.3,11.5,4.3,17.6s-2.3,14.7-7,21c-11.2,14.9-24.5,22.3-39.9,22.3s-4-.1-6-.4c-5.5-.6-10.5-2.4-14.9-5.3-10.3-6.8-15.5-16.8-15.5-29.8s3.1-17.3,9.2-23.8c5.3-5.6,11.5-8.4,18.7-8.4s12.3,2.5,16.5,7.6c-1.3-.2-2.5-.4-3.8-.4-4.9,0-9.3,1.6-13.3,4.9-4.9,4-7.8,9.2-8.9,15.5-.2,1.4-.3,2.8-.3,4.2,0,12.5,6.1,20.6,18.2,24.3,3.4,1,6.6,1.6,9.7,1.6,9.3,0,16.2-4.4,20.5-13.2,1.7-3.3,2.5-7,2.5-11,0-7.5-2.6-14.9-7.8-22.2-5.4-7.6-8.7-12.5-9.9-14.6-2.1-3.5-3.5-6.9-4.4-10.2-2.9.4-5.6.5-8.2.5-5.8,0-10.6-.9-14.3-2.8-5.2-2.6-7.9-6.6-7.9-12s2.5-10.2,7.3-13.6c2.7-1.9,5.6-2.8,8.8-2.8s7.1,1.2,10.6,3.6c-2.9.1-5.8,1.7-8.6,4.9-2.8,3.1-4.2,6.2-4.2,9.3,0,5.2,4.3,7.8,12.8,7.8s1.9,0,2.9-.1c0-1.1-.1-2.2-.1-3.3,0-8.2,2.2-15.3,6.7-21.2,6.5-8.6,16.1-13,28.8-13s18.7,4.2,18.7,12.5-.2,2.9-.8,4.4c-3.8,11.3-15.4,19-34.8,22.9.8,2.3,3.1,6.2,7,11.6h0ZM649.2,413.2c0-1.6-.3-4.9-.9-9.8-.8-6.3-1.2-10.6-1.2-12.9v-.2c-3.5,3.2-7.6,4.8-12.4,4.8h-1.1c-.8,3.2-2.1,6.6-3.7,10.1-8.2,18.2-18.8,27.3-31.9,27.3h-1.2c-6.3-.5-9.4-4.8-9.4-13s1.6-11.8,4.9-18.5c1.6-3.2,3.2-6.1,5-8.8-3.2,1.6-6.6,2.6-10.3,2.9-.6,2.2-1.9,5.6-3.9,10.3-7.8,18.1-16.2,27.2-25.1,27.5-2.9,0-5.3-.9-7.2-2.8s-3-4.2-3.2-7.2l-16.2,37.2h-13.4l21.8-50c-2.6,4.1-5,7.5-7.4,10.2-3.9,4.6-7.9,8-11.9,10-3.4,1.7-7.2,2.6-11.4,2.6s-6.4-1.3-8.6-3.9c-2.3-2.6-3.4-5.9-3.4-10-6.9,9.2-13,13.9-18.3,13.9s-8.6-3-8.6-9,1.4-8.8,4.1-14.2l16.3-33.1h13.8l-17.3,38c-1.2,2.7-1.9,4.5-1.9,5.2s.5,1.3,1.5,1.3,1.9-.4,3.2-1.3c3.3-2.2,7.1-6.5,11.5-12.7,4.4-6.2,8.3-13,11.8-20.4.9-5.4,3.8-8.7,8.7-10.2h12.8c-5.2,3.4-7.8,8.6-7.8,15.5s.2,4.9.7,9c.5,4.3.8,7.5.8,9.6,0,4.1-.6,7.7-1.8,10.7,6.8-5.1,14.2-15.6,22.1-31.6l5.7-13.1h13.4l-4.3,9.5c6.6-8,12.7-12,18.3-12s7.5,3.1,7.5,9.3-.3,4.6-1,7.4h.9c4.5,0,8.5-1.2,12.1-3.8,2.3-2.7,4.7-5,7.3-7,5.4-4.1,10.6-6.1,15.7-6.1s10.8,3.9,10.8,11.7-.2,3.2-.5,5c1.1.2,2.1.3,3.2.3,4,0,7.2-1.4,9.6-4.2.9-5.4,3.8-8.7,8.7-10.2h12.8c-5.2,3.4-7.8,8.6-7.8,15.5s.2,4.9.7,9c.5,4.3.8,7.5.8,9.6,0,4.1-.6,7.7-1.8,10.7,2.5-1.8,5-4.4,7.6-7.6.9-3.3,2.4-6.8,4.4-10.5,10.8-19.2,21.7-28.9,32.9-28.9s6.9,2.3,6.9,6.8v.5l2.4-5.1h13.8l-15.4,34.3c-.3.7-.8,1.7-1.4,3-1.5,3-2.2,5-2.2,5.8s.5,1.3,1.6,1.3,1.8-.4,3-1.3c3.2-2.2,7-6.4,11.4-12.7,2.7-3.9,5.3-7.9,7.7-12.2l29.3-60.8h13.8l-35.8,76.8c-.3.9-.9,2.1-1.7,3.7-1.3,2.7-1.9,4.4-1.9,5.2s.5,1.3,1.5,1.3,1.9-.4,3.2-1.3c3.3-2.2,7.1-6.5,11.5-12.7,4.4-6.2,8.3-13,11.8-20.4.3-.2.6-.3,1-.3.7,0,1.1.4,1.1,1v.3c-14.7,30.1-26.8,45.1-36.4,45.1s-8.6-3-8.6-9,.4-4.8,1.3-7.5c-7.7,11-14.5,16.5-20.3,16.5s-8.3-3.6-8.3-10.8.3-4,.9-6.1c-7.2,11-13.6,16.5-19.3,16.5s-9.4-3.7-9.4-11.1v-1.8c0,0-.6.8-.6.8-3.9,4.6-7.9,8-11.9,10-3.4,1.7-7.2,2.6-11.4,2.6s-6.4-1.3-8.6-3.9c-2.3-2.6-3.4-5.9-3.4-10s.7-5.3,2.1-7.6,3-3.5,4.6-3.5h.4c-2,2.4-3,4.8-3,7.2s.6,3.6,1.9,4.9c1.3,1.3,2.9,2,4.9,2s4.2-.9,5.4-2.5c1-1.4,1.5-3.5,1.5-6.2h0ZM380.5,342.5c15.4-14.3,33-21.5,53-21.5s6.7.2,9.9.7c7,1.1,13,3.4,18,7,10.7,7.7,16.1,19.9,16.1,36.5s-6.9,38.7-20.6,54.8c-10.6,12.5-22.8,19.4-36.4,20.6-1.8.2-3.5.2-5.1.2-5,0-9.9-.8-14.5-2.5-3.6-1.3-8.5-3.9-14.5-7.7l-4.3-2.7c-9,8.8-18.2,13.2-27.6,13.2-5.3-.1-9.4-1.5-12.1-4.2-2.1-2-3.1-4.5-3.1-7.4s1.8-7.5,5.4-10.4c3.6-2.9,8-4.3,13.2-4.4,4,0,8.3.3,12.8,1,4.6-5.8,10.5-14.9,17.5-27.4,20.2-36.1,39.1-54.2,56.7-54.2s3.5.2,5.3.6c-6.4,1.7-12.6,6.6-18.5,14.8-3.8,5.2-10,15.7-18.5,31.5l-5.5,10.2c-6.7,12.4-13.1,22.3-19.3,29.9,7.7,3,13.7,4.5,17.9,4.4,12.3,0,23.8-5.6,34.5-16.6,15.1-15.6,22.7-32.9,22.7-52.1s-1.1-11.5-3.3-16c-4.7-9.7-13.8-14.6-27.2-14.6s-28.2,6.6-39.5,19.9c-6.7,7.9-10,15.3-10,22.3s1.1,6.1,3.3,7.6c-2.6,2.2-5.2,3.4-7.8,3.4s-5.3-1.3-7.1-3.9c-1.9-2.6-2.8-5.9-2.8-9.8,0-8.2,3.9-15.9,11.7-23.2h0ZM966.2,422.8c0-3.8,1-8,3.1-12.6-9.6,15.1-18.1,22.7-25.5,22.7s-8.2-3.1-8.2-9.2.2-2.5.5-3.8c1.7-6.1,5.9-14.4,12.5-25l.9-1.5c1.8-2.7,2.7-4.7,2.7-6s-.6-1.5-1.8-1.5-3.4.6-6.2,1.8h-.2c-13.8,30.1-28.6,45.1-44.2,45.1s-14.1-5.1-14.1-15.3,5.2-23.2,15.7-33.2c7-6.7,13.5-10,19.4-10s10.3,3.5,10.3,10.4-1.5,7.9-4.5,12c-5.1,7-11,10.5-17.8,10.5s-6.7-1.1-8-3.4c-.5,2.2-.8,4.3-.8,6.3,0,7.1,2.9,10.6,8.7,10.6,10.9,0,21.8-10.9,32.7-32.7-1.8-.5-2.7-2.4-2.7-5.5s1.2-7.7,3.7-11.5c2.5-3.8,4.9-5.7,7.4-5.7s3.1,1,3.1,3c0,2.8-2.2,8-6.7,15.5.8-.3,2.3-.9,4.5-1.9,8.4-3.7,14-5.6,16.6-5.6s3,.9,3,2.5-2,6.2-5.9,12c-2.8,4.1-5.3,8.4-7.6,12.7-2.3,4.4-3.8,7.9-4.5,10.7-.5,2-.8,3.5-.8,4.6s.5,2.3,1.6,2.3c2.8,0,6.8-3.3,11.9-9.9,4.8-6.2,9.3-13.8,13.6-22.6,1.8-4.5,3.3-8.4,4.5-11.9h14c-4.2,11.2-8.9,22.4-14.2,33.5-1.4,3-2,5.6-2,7.8s1.2,4.4,3.7,4.4,5.9-3.2,9.4-9.7c3.5-6.5,6.3-13.9,8.2-22.4-1.1-1.7-1.7-3.7-1.7-6.1,0-3.8,1.2-7.6,3.7-11.6.6,0,1.2-.1,1.8-.1,6.5,0,9.8,3.4,9.8,10.1s-.5,5-1.4,7.9c1.1.3,2.2.4,3.2.4,3.2,0,6.4-1.3,9.3-3.9l5.1-10.3h13.8l-17.3,38c-1.2,2.7-1.9,4.5-1.9,5.2s.5,1.3,1.5,1.3,1.9-.4,3.2-1.3c3.3-2.2,7.1-6.5,11.5-12.7l.2-.3c.8-2.5,1.8-5,3.1-7.6,3.3-6.5,7.5-12,12.6-16.5,7.1-6.2,14.6-9.3,22.4-9.3s9,2.6,9,7.9-1.3,6.6-3.9,9.4c-3.2,3.4-6.3,5.1-9.3,5.1s-2.8-.5-3.8-1.4c-1-1-1.5-2.2-1.5-3.6s.6-3.1,1.8-4.6c1,.2,2,.3,2.9.3,3.6,0,6.1-1.1,7.6-3.3.6-.8.8-1.7.8-2.5,0-2.2-1.4-3.3-4.1-3.3-4.7,0-9.4,2.7-14.1,8.1-3,3.4-5.5,7.4-7.3,11.9-1.9,4.5-2.8,8.6-2.8,12.3,0,6.7,2.9,10,8.7,10s13.5-4.4,20.4-13.3c2.3-7.9,7-15.2,14.2-22.1,7-6.7,13.5-10,19.4-10s10.3,3.5,10.3,10.4-1.5,7.9-4.5,12c-5.1,7-11,10.5-17.8,10.5s-6.7-1.1-8-3.4c-.5,2.2-.8,4.3-.8,6.3,0,7.1,2.9,10.6,8.7,10.6,11.1,0,22.2-11.3,33.3-33.9.2-.1.5-.1.7-.1.7,0,1.1.4,1.3,1.2-13.8,30.1-28.6,45.1-44.3,45.1s-14.1-5.1-14.1-15.3v-3c-9.1,12.2-18.7,18.3-28.6,18.3s-14.2-5.1-14.2-15.3v-2.6c-7.9,11.9-15,17.9-21,17.9s-8.6-3-8.6-9,1.4-8.8,4.1-14.2l8.8-17.9c-3.3,2.3-6.6,3.5-9.9,3.5s-1.3,0-1.9-.1l-2.1,3.8c-5.3,9.8-11.5,17.9-18.4,24.3s-13.1,9.6-18.3,9.6-7.8-3.4-7.8-10.1h0Z"/>
        <path class="cls-1" d="M1158.3,430.7c4.9-.1,9.4-.2,11.3-.2h12.9l2.3-11.3-.7-.2c-3.8,6.2-7.5,9.5-10.8,9.5s-2.2-.4-2.8-1.2c-.8-1-1.2-2.9-1.2-5.7,0-11.8,0-8.9,0-20.7v-.7c.1-1.5.5-2.2,1.7-2.7v-.7c-3,.2-4.3.2-5.8.2s-2.8,0-5.8-.2v.7c.8.4,1.2.8,1.4,1.5.2.5.2,1,.2,2.6v18.3c0,3.1-.2,5-.5,6.4-.4,1.7-1.2,2.9-2.3,3.6v.7h0Z"/>
        <path class="cls-1" d="M1187.4,430.7c4.9-.1,9.4-.2,11.3-.2h12.9l2.3-11.3-.7-.2c-3.7,6.2-7.5,9.5-10.8,9.5s-2.2-.4-2.8-1.2c-.8-1-1.2-2.9-1.2-5.7v-21.4c.1-1.5.5-2.2,1.7-2.7v-.7c-3,.2-4.3.2-5.8.2s-2.8,0-5.8-.2v.7c.8.4,1.2.8,1.4,1.5.2.5.2,1,.2,2.6v18.3c0,3.1-.2,5-.5,6.4-.4,1.7-1.2,2.9-2.3,3.6v.7h0Z"/>
        <path class="cls-1" d="M1241.8,418.5c-1.2,7.3-3.7,10.8-7.6,10.8s-4.2-1.4-5.7-3.9c-1.6-2.7-2.4-6.5-2.4-10.9,0-7.6,1.9-13.3,5.2-15.5.9-.6,1.9-.9,3-.9,4,0,5.9,3.4,7,12l.7.2,2.3-10.2c-3.4-2.6-7.2-4-11.1-4s-9.1,2.2-12.1,6.1c-2.6,3.4-3.9,7.5-3.9,12s1.5,9.1,4.3,12.5c2.6,3.2,6.3,4.9,10.7,4.9s8.3-1.5,12-4.5l-1.8-8.6-.7.2h0Z"/>
      </g>
    </g>
  </g>
</svg>